%TF.GenerationSoftware,KiCad,Pcbnew,(5.99.0-7355-g8781ce7efb)*%
%TF.CreationDate,2021-01-22T11:19:26+01:00*%
%TF.ProjectId,FoxPill,466f7850-696c-46c2-9e6b-696361645f70,rev?*%
%TF.SameCoordinates,Original*%
%TF.FileFunction,Soldermask,Bot*%
%TF.FilePolarity,Negative*%
%FSLAX46Y46*%
G04 Gerber Fmt 4.6, Leading zero omitted, Abs format (unit mm)*
G04 Created by KiCad (PCBNEW (5.99.0-7355-g8781ce7efb)) date 2021-01-22 11:19:26*
%MOMM*%
%LPD*%
G01*
G04 APERTURE LIST*
G04 Aperture macros list*
%AMRoundRect*
0 Rectangle with rounded corners*
0 $1 Rounding radius*
0 $2 $3 $4 $5 $6 $7 $8 $9 X,Y pos of 4 corners*
0 Add a 4 corners polygon primitive as box body*
4,1,4,$2,$3,$4,$5,$6,$7,$8,$9,$2,$3,0*
0 Add four circle primitives for the rounded corners*
1,1,$1+$1,$2,$3,0*
1,1,$1+$1,$4,$5,0*
1,1,$1+$1,$6,$7,0*
1,1,$1+$1,$8,$9,0*
0 Add four rect primitives between the rounded corners*
20,1,$1+$1,$2,$3,$4,$5,0*
20,1,$1+$1,$4,$5,$6,$7,0*
20,1,$1+$1,$6,$7,$8,$9,0*
20,1,$1+$1,$8,$9,$2,$3,0*%
G04 Aperture macros list end*
%ADD10C,0.670000*%
%ADD11O,2.020000X1.620000*%
%ADD12O,2.520000X1.220000*%
%ADD13RoundRect,0.010000X0.850000X0.850000X-0.850000X0.850000X-0.850000X-0.850000X0.850000X-0.850000X0*%
%ADD14RoundRect,0.010000X-0.850000X-0.850000X0.850000X-0.850000X0.850000X0.850000X-0.850000X0.850000X0*%
%ADD15O,1.720000X1.720000*%
%ADD16RoundRect,0.010000X-0.850000X0.850000X-0.850000X-0.850000X0.850000X-0.850000X0.850000X0.850000X0*%
%ADD17RoundRect,0.010000X-0.500000X-0.500000X0.500000X-0.500000X0.500000X0.500000X-0.500000X0.500000X0*%
G04 APERTURE END LIST*
D10*
X24924999Y-25680000D03*
X24924999Y-31460000D03*
D11*
X21274999Y-32890000D03*
D12*
X25454999Y-32890000D03*
D11*
X21274999Y-24250000D03*
D12*
X25454999Y-24250000D03*
D13*
X21420000Y-35340000D03*
D14*
X21420000Y-21780000D03*
X61740000Y-22310000D03*
D15*
X61740000Y-24850000D03*
X61740000Y-27390000D03*
X61740000Y-29930000D03*
D14*
X59200000Y-24850000D03*
D15*
X59200000Y-27390000D03*
X59200000Y-29930000D03*
X59200000Y-32470000D03*
D16*
X23700000Y-21100000D03*
D15*
X26240000Y-21100000D03*
X28780000Y-21100000D03*
X31320000Y-21100000D03*
X33860000Y-21100000D03*
X36400000Y-21100000D03*
X38940000Y-21100000D03*
X41480000Y-21100000D03*
X44020000Y-21100000D03*
X46560000Y-21100000D03*
X49100000Y-21100000D03*
X51640000Y-21100000D03*
X54180000Y-21100000D03*
X56720000Y-21100000D03*
X59260000Y-21100000D03*
D16*
X23700000Y-36100000D03*
D15*
X26240000Y-36100000D03*
X28780000Y-36100000D03*
X31320000Y-36100000D03*
X33860000Y-36100000D03*
X36400000Y-36100000D03*
X38940000Y-36100000D03*
X41480000Y-36100000D03*
X44020000Y-36100000D03*
X46560000Y-36100000D03*
X49100000Y-36100000D03*
X51640000Y-36100000D03*
X54180000Y-36100000D03*
X56720000Y-36100000D03*
X59260000Y-36100000D03*
D17*
X53900000Y-33300000D03*
M02*
