%TF.GenerationSoftware,KiCad,Pcbnew,(5.99.0-7355-g8781ce7efb)*%
%TF.CreationDate,2021-01-22T11:19:25+01:00*%
%TF.ProjectId,FoxPill,466f7850-696c-46c2-9e6b-696361645f70,rev?*%
%TF.SameCoordinates,Original*%
%TF.FileFunction,Legend,Top*%
%TF.FilePolarity,Positive*%
%FSLAX46Y46*%
G04 Gerber Fmt 4.6, Leading zero omitted, Abs format (unit mm)*
G04 Created by KiCad (PCBNEW (5.99.0-7355-g8781ce7efb)) date 2021-01-22 11:19:25*
%MOMM*%
%LPD*%
G01*
G04 APERTURE LIST*
%ADD10C,0.250000*%
%ADD11C,0.100000*%
%ADD12C,0.150000*%
%ADD13C,0.120000*%
%ADD14C,0.112500*%
%ADD15C,0.125000*%
G04 APERTURE END LIST*
D10*
X21400000Y-29450000D02*
X22200000Y-29450000D01*
D11*
X45250000Y-23150000D02*
X45400000Y-23300000D01*
D10*
X21400000Y-27850000D02*
X21400000Y-29450000D01*
D12*
X31000000Y-23150000D02*
X31000000Y-23700000D01*
D10*
X23600000Y-30050000D02*
X23600000Y-26450000D01*
X22200000Y-28650000D02*
X21400000Y-28650000D01*
X23000000Y-27050000D02*
X21400000Y-27050000D01*
D11*
X50350000Y-22900000D02*
X50500000Y-23050000D01*
D10*
X23600000Y-26450000D02*
X20800000Y-26450000D01*
D11*
X47850000Y-21925000D02*
X47850000Y-23175000D01*
D10*
X22200000Y-27850000D02*
X22200000Y-28650000D01*
D11*
X45250000Y-21600000D02*
X45250000Y-23150000D01*
D10*
X22200000Y-27050000D02*
X22200000Y-27850000D01*
D11*
X50350000Y-21650000D02*
X50350000Y-22900000D01*
D10*
X22200000Y-27850000D02*
X21400000Y-27850000D01*
D11*
X55450000Y-21600000D02*
X55450000Y-22950000D01*
D10*
X23600000Y-30650000D02*
X20800000Y-30650000D01*
X22200000Y-27850000D02*
X22800000Y-27850000D01*
X20800000Y-30050000D02*
X23600000Y-30050000D01*
D12*
X31224996Y-23362493D02*
G75*
G02*
X30775000Y-23362493I-224998J-337370D01*
G01*
D10*
X20800000Y-26450000D02*
X20800000Y-30050000D01*
D12*
X30727976Y-33844761D02*
X30870833Y-33892380D01*
X31108928Y-33892380D01*
X31204166Y-33844761D01*
X31251785Y-33797142D01*
X31299404Y-33701904D01*
X31299404Y-33606666D01*
X31251785Y-33511428D01*
X31204166Y-33463809D01*
X31108928Y-33416190D01*
X30918452Y-33368571D01*
X30823214Y-33320952D01*
X30775595Y-33273333D01*
X30727976Y-33178095D01*
X30727976Y-33082857D01*
X30775595Y-32987619D01*
X30823214Y-32940000D01*
X30918452Y-32892380D01*
X31156547Y-32892380D01*
X31299404Y-32940000D01*
X31585119Y-33225714D02*
X31966071Y-33225714D01*
X31727976Y-32892380D02*
X31727976Y-33749523D01*
X31775595Y-33844761D01*
X31870833Y-33892380D01*
X31966071Y-33892380D01*
X32727976Y-33892380D02*
X32727976Y-33368571D01*
X32680357Y-33273333D01*
X32585119Y-33225714D01*
X32394642Y-33225714D01*
X32299404Y-33273333D01*
X32727976Y-33844761D02*
X32632738Y-33892380D01*
X32394642Y-33892380D01*
X32299404Y-33844761D01*
X32251785Y-33749523D01*
X32251785Y-33654285D01*
X32299404Y-33559047D01*
X32394642Y-33511428D01*
X32632738Y-33511428D01*
X32727976Y-33463809D01*
X33061309Y-33225714D02*
X33442261Y-33225714D01*
X33204166Y-32892380D02*
X33204166Y-33749523D01*
X33251785Y-33844761D01*
X33347023Y-33892380D01*
X33442261Y-33892380D01*
X34204166Y-33225714D02*
X34204166Y-33892380D01*
X33775595Y-33225714D02*
X33775595Y-33749523D01*
X33823214Y-33844761D01*
X33918452Y-33892380D01*
X34061309Y-33892380D01*
X34156547Y-33844761D01*
X34204166Y-33797142D01*
X34632738Y-33844761D02*
X34727976Y-33892380D01*
X34918452Y-33892380D01*
X35013690Y-33844761D01*
X35061309Y-33749523D01*
X35061309Y-33701904D01*
X35013690Y-33606666D01*
X34918452Y-33559047D01*
X34775595Y-33559047D01*
X34680357Y-33511428D01*
X34632738Y-33416190D01*
X34632738Y-33368571D01*
X34680357Y-33273333D01*
X34775595Y-33225714D01*
X34918452Y-33225714D01*
X35013690Y-33273333D01*
D11*
X61269047Y-28525000D02*
X61221428Y-28501190D01*
X61150000Y-28501190D01*
X61078571Y-28525000D01*
X61030952Y-28572619D01*
X61007142Y-28620238D01*
X60983333Y-28715476D01*
X60983333Y-28786904D01*
X61007142Y-28882142D01*
X61030952Y-28929761D01*
X61078571Y-28977380D01*
X61150000Y-29001190D01*
X61197619Y-29001190D01*
X61269047Y-28977380D01*
X61292857Y-28953571D01*
X61292857Y-28786904D01*
X61197619Y-28786904D01*
X61507142Y-29001190D02*
X61507142Y-28501190D01*
X61792857Y-29001190D01*
X61792857Y-28501190D01*
X62030952Y-29001190D02*
X62030952Y-28501190D01*
X62150000Y-28501190D01*
X62221428Y-28525000D01*
X62269047Y-28572619D01*
X62292857Y-28620238D01*
X62316666Y-28715476D01*
X62316666Y-28786904D01*
X62292857Y-28882142D01*
X62269047Y-28929761D01*
X62221428Y-28977380D01*
X62150000Y-29001190D01*
X62030952Y-29001190D01*
X61402380Y-26378571D02*
X61378571Y-26402380D01*
X61307142Y-26426190D01*
X61259523Y-26426190D01*
X61188095Y-26402380D01*
X61140476Y-26354761D01*
X61116666Y-26307142D01*
X61092857Y-26211904D01*
X61092857Y-26140476D01*
X61116666Y-26045238D01*
X61140476Y-25997619D01*
X61188095Y-25950000D01*
X61259523Y-25926190D01*
X61307142Y-25926190D01*
X61378571Y-25950000D01*
X61402380Y-25973809D01*
X61854761Y-26426190D02*
X61616666Y-26426190D01*
X61616666Y-25926190D01*
X62021428Y-26426190D02*
X62021428Y-25926190D01*
X62307142Y-26426190D02*
X62092857Y-26140476D01*
X62307142Y-25926190D02*
X62021428Y-26211904D01*
X61238095Y-23926190D02*
X61238095Y-23426190D01*
X61357142Y-23426190D01*
X61428571Y-23450000D01*
X61476190Y-23497619D01*
X61500000Y-23545238D01*
X61523809Y-23640476D01*
X61523809Y-23711904D01*
X61500000Y-23807142D01*
X61476190Y-23854761D01*
X61428571Y-23902380D01*
X61357142Y-23926190D01*
X61238095Y-23926190D01*
X61738095Y-23926190D02*
X61738095Y-23426190D01*
X62071428Y-23426190D02*
X62166666Y-23426190D01*
X62214285Y-23450000D01*
X62261904Y-23497619D01*
X62285714Y-23592857D01*
X62285714Y-23759523D01*
X62261904Y-23854761D01*
X62214285Y-23902380D01*
X62166666Y-23926190D01*
X62071428Y-23926190D01*
X62023809Y-23902380D01*
X61976190Y-23854761D01*
X61952380Y-23759523D01*
X61952380Y-23592857D01*
X61976190Y-23497619D01*
X62023809Y-23450000D01*
X62071428Y-23426190D01*
X22796428Y-34946428D02*
X22796428Y-34346428D01*
X23025000Y-34346428D01*
X23082142Y-34375000D01*
X23110714Y-34403571D01*
X23139285Y-34460714D01*
X23139285Y-34546428D01*
X23110714Y-34603571D01*
X23082142Y-34632142D01*
X23025000Y-34660714D01*
X22796428Y-34660714D01*
X23596428Y-34632142D02*
X23682142Y-34660714D01*
X23710714Y-34689285D01*
X23739285Y-34746428D01*
X23739285Y-34832142D01*
X23710714Y-34889285D01*
X23682142Y-34917857D01*
X23625000Y-34946428D01*
X23396428Y-34946428D01*
X23396428Y-34346428D01*
X23596428Y-34346428D01*
X23653571Y-34375000D01*
X23682142Y-34403571D01*
X23710714Y-34460714D01*
X23710714Y-34517857D01*
X23682142Y-34575000D01*
X23653571Y-34603571D01*
X23596428Y-34632142D01*
X23396428Y-34632142D01*
X24310714Y-34946428D02*
X23967857Y-34946428D01*
X24139285Y-34946428D02*
X24139285Y-34346428D01*
X24082142Y-34432142D01*
X24025000Y-34489285D01*
X23967857Y-34517857D01*
X24510714Y-34346428D02*
X24882142Y-34346428D01*
X24682142Y-34575000D01*
X24767857Y-34575000D01*
X24825000Y-34603571D01*
X24853571Y-34632142D01*
X24882142Y-34689285D01*
X24882142Y-34832142D01*
X24853571Y-34889285D01*
X24825000Y-34917857D01*
X24767857Y-34946428D01*
X24596428Y-34946428D01*
X24539285Y-34917857D01*
X24510714Y-34889285D01*
X38058333Y-35041666D02*
X38058333Y-34341666D01*
X38325000Y-34341666D01*
X38391666Y-34375000D01*
X38425000Y-34408333D01*
X38458333Y-34475000D01*
X38458333Y-34575000D01*
X38425000Y-34641666D01*
X38391666Y-34675000D01*
X38325000Y-34708333D01*
X38058333Y-34708333D01*
X38991666Y-34675000D02*
X39091666Y-34708333D01*
X39125000Y-34741666D01*
X39158333Y-34808333D01*
X39158333Y-34908333D01*
X39125000Y-34975000D01*
X39091666Y-35008333D01*
X39025000Y-35041666D01*
X38758333Y-35041666D01*
X38758333Y-34341666D01*
X38991666Y-34341666D01*
X39058333Y-34375000D01*
X39091666Y-34408333D01*
X39125000Y-34475000D01*
X39125000Y-34541666D01*
X39091666Y-34608333D01*
X39058333Y-34641666D01*
X38991666Y-34675000D01*
X38758333Y-34675000D01*
X39425000Y-34408333D02*
X39458333Y-34375000D01*
X39525000Y-34341666D01*
X39691666Y-34341666D01*
X39758333Y-34375000D01*
X39791666Y-34408333D01*
X39825000Y-34475000D01*
X39825000Y-34541666D01*
X39791666Y-34641666D01*
X39391666Y-35041666D01*
X39825000Y-35041666D01*
X27958333Y-35041666D02*
X27958333Y-34341666D01*
X28225000Y-34341666D01*
X28291666Y-34375000D01*
X28325000Y-34408333D01*
X28358333Y-34475000D01*
X28358333Y-34575000D01*
X28325000Y-34641666D01*
X28291666Y-34675000D01*
X28225000Y-34708333D01*
X27958333Y-34708333D01*
X28625000Y-34841666D02*
X28958333Y-34841666D01*
X28558333Y-35041666D02*
X28791666Y-34341666D01*
X29025000Y-35041666D01*
X29358333Y-34641666D02*
X29291666Y-34608333D01*
X29258333Y-34575000D01*
X29225000Y-34508333D01*
X29225000Y-34475000D01*
X29258333Y-34408333D01*
X29291666Y-34375000D01*
X29358333Y-34341666D01*
X29491666Y-34341666D01*
X29558333Y-34375000D01*
X29591666Y-34408333D01*
X29625000Y-34475000D01*
X29625000Y-34508333D01*
X29591666Y-34575000D01*
X29558333Y-34608333D01*
X29491666Y-34641666D01*
X29358333Y-34641666D01*
X29291666Y-34675000D01*
X29258333Y-34708333D01*
X29225000Y-34775000D01*
X29225000Y-34908333D01*
X29258333Y-34975000D01*
X29291666Y-35008333D01*
X29358333Y-35041666D01*
X29491666Y-35041666D01*
X29558333Y-35008333D01*
X29591666Y-34975000D01*
X29625000Y-34908333D01*
X29625000Y-34775000D01*
X29591666Y-34708333D01*
X29558333Y-34675000D01*
X29491666Y-34641666D01*
X40608333Y-35041666D02*
X40608333Y-34341666D01*
X40875000Y-34341666D01*
X40941666Y-34375000D01*
X40975000Y-34408333D01*
X41008333Y-34475000D01*
X41008333Y-34575000D01*
X40975000Y-34641666D01*
X40941666Y-34675000D01*
X40875000Y-34708333D01*
X40608333Y-34708333D01*
X41541666Y-34675000D02*
X41641666Y-34708333D01*
X41675000Y-34741666D01*
X41708333Y-34808333D01*
X41708333Y-34908333D01*
X41675000Y-34975000D01*
X41641666Y-35008333D01*
X41575000Y-35041666D01*
X41308333Y-35041666D01*
X41308333Y-34341666D01*
X41541666Y-34341666D01*
X41608333Y-34375000D01*
X41641666Y-34408333D01*
X41675000Y-34475000D01*
X41675000Y-34541666D01*
X41641666Y-34608333D01*
X41608333Y-34641666D01*
X41541666Y-34675000D01*
X41308333Y-34675000D01*
X41941666Y-34341666D02*
X42408333Y-34341666D01*
X42108333Y-35041666D01*
X33082142Y-35046428D02*
X33082142Y-34446428D01*
X33310714Y-34446428D01*
X33367857Y-34475000D01*
X33396428Y-34503571D01*
X33425000Y-34560714D01*
X33425000Y-34646428D01*
X33396428Y-34703571D01*
X33367857Y-34732142D01*
X33310714Y-34760714D01*
X33082142Y-34760714D01*
X33882142Y-34732142D02*
X33967857Y-34760714D01*
X33996428Y-34789285D01*
X34025000Y-34846428D01*
X34025000Y-34932142D01*
X33996428Y-34989285D01*
X33967857Y-35017857D01*
X33910714Y-35046428D01*
X33682142Y-35046428D01*
X33682142Y-34446428D01*
X33882142Y-34446428D01*
X33939285Y-34475000D01*
X33967857Y-34503571D01*
X33996428Y-34560714D01*
X33996428Y-34617857D01*
X33967857Y-34675000D01*
X33939285Y-34703571D01*
X33882142Y-34732142D01*
X33682142Y-34732142D01*
X34367857Y-34703571D02*
X34310714Y-34675000D01*
X34282142Y-34646428D01*
X34253571Y-34589285D01*
X34253571Y-34560714D01*
X34282142Y-34503571D01*
X34310714Y-34475000D01*
X34367857Y-34446428D01*
X34482142Y-34446428D01*
X34539285Y-34475000D01*
X34567857Y-34503571D01*
X34596428Y-34560714D01*
X34596428Y-34589285D01*
X34567857Y-34646428D01*
X34539285Y-34675000D01*
X34482142Y-34703571D01*
X34367857Y-34703571D01*
X34310714Y-34732142D01*
X34282142Y-34760714D01*
X34253571Y-34817857D01*
X34253571Y-34932142D01*
X34282142Y-34989285D01*
X34310714Y-35017857D01*
X34367857Y-35046428D01*
X34482142Y-35046428D01*
X34539285Y-35017857D01*
X34567857Y-34989285D01*
X34596428Y-34932142D01*
X34596428Y-34817857D01*
X34567857Y-34760714D01*
X34539285Y-34732142D01*
X34482142Y-34703571D01*
X35275000Y-35041666D02*
X35275000Y-34341666D01*
X35541666Y-34341666D01*
X35608333Y-34375000D01*
X35641666Y-34408333D01*
X35675000Y-34475000D01*
X35675000Y-34575000D01*
X35641666Y-34641666D01*
X35608333Y-34675000D01*
X35541666Y-34708333D01*
X35275000Y-34708333D01*
X35941666Y-34841666D02*
X36275000Y-34841666D01*
X35875000Y-35041666D02*
X36108333Y-34341666D01*
X36341666Y-35041666D01*
X36941666Y-35041666D02*
X36541666Y-35041666D01*
X36741666Y-35041666D02*
X36741666Y-34341666D01*
X36675000Y-34441666D01*
X36608333Y-34508333D01*
X36541666Y-34541666D01*
X37575000Y-34341666D02*
X37241666Y-34341666D01*
X37208333Y-34675000D01*
X37241666Y-34641666D01*
X37308333Y-34608333D01*
X37475000Y-34608333D01*
X37541666Y-34641666D01*
X37575000Y-34675000D01*
X37608333Y-34741666D01*
X37608333Y-34908333D01*
X37575000Y-34975000D01*
X37541666Y-35008333D01*
X37475000Y-35041666D01*
X37308333Y-35041666D01*
X37241666Y-35008333D01*
X37208333Y-34975000D01*
X30532142Y-35046428D02*
X30532142Y-34446428D01*
X30760714Y-34446428D01*
X30817857Y-34475000D01*
X30846428Y-34503571D01*
X30875000Y-34560714D01*
X30875000Y-34646428D01*
X30846428Y-34703571D01*
X30817857Y-34732142D01*
X30760714Y-34760714D01*
X30532142Y-34760714D01*
X31332142Y-34732142D02*
X31417857Y-34760714D01*
X31446428Y-34789285D01*
X31475000Y-34846428D01*
X31475000Y-34932142D01*
X31446428Y-34989285D01*
X31417857Y-35017857D01*
X31360714Y-35046428D01*
X31132142Y-35046428D01*
X31132142Y-34446428D01*
X31332142Y-34446428D01*
X31389285Y-34475000D01*
X31417857Y-34503571D01*
X31446428Y-34560714D01*
X31446428Y-34617857D01*
X31417857Y-34675000D01*
X31389285Y-34703571D01*
X31332142Y-34732142D01*
X31132142Y-34732142D01*
X32046428Y-35046428D02*
X31703571Y-35046428D01*
X31875000Y-35046428D02*
X31875000Y-34446428D01*
X31817857Y-34532142D01*
X31760714Y-34589285D01*
X31703571Y-34617857D01*
X58508333Y-34341666D02*
X58741666Y-35041666D01*
X58975000Y-34341666D01*
X59208333Y-35041666D02*
X59208333Y-34341666D01*
X59541666Y-35041666D02*
X59541666Y-34341666D01*
X59941666Y-35041666D01*
X59941666Y-34341666D01*
X56267857Y-34525000D02*
X56210714Y-34496428D01*
X56125000Y-34496428D01*
X56039285Y-34525000D01*
X55982142Y-34582142D01*
X55953571Y-34639285D01*
X55925000Y-34753571D01*
X55925000Y-34839285D01*
X55953571Y-34953571D01*
X55982142Y-35010714D01*
X56039285Y-35067857D01*
X56125000Y-35096428D01*
X56182142Y-35096428D01*
X56267857Y-35067857D01*
X56296428Y-35039285D01*
X56296428Y-34839285D01*
X56182142Y-34839285D01*
X56553571Y-35096428D02*
X56553571Y-34496428D01*
X56896428Y-35096428D01*
X56896428Y-34496428D01*
X57182142Y-35096428D02*
X57182142Y-34496428D01*
X57325000Y-34496428D01*
X57410714Y-34525000D01*
X57467857Y-34582142D01*
X57496428Y-34639285D01*
X57525000Y-34753571D01*
X57525000Y-34839285D01*
X57496428Y-34953571D01*
X57467857Y-35010714D01*
X57410714Y-35067857D01*
X57325000Y-35096428D01*
X57182142Y-35096428D01*
X43158333Y-35041666D02*
X43158333Y-34341666D01*
X43425000Y-34341666D01*
X43491666Y-34375000D01*
X43525000Y-34408333D01*
X43558333Y-34475000D01*
X43558333Y-34575000D01*
X43525000Y-34641666D01*
X43491666Y-34675000D01*
X43425000Y-34708333D01*
X43158333Y-34708333D01*
X44091666Y-34675000D02*
X44191666Y-34708333D01*
X44225000Y-34741666D01*
X44258333Y-34808333D01*
X44258333Y-34908333D01*
X44225000Y-34975000D01*
X44191666Y-35008333D01*
X44125000Y-35041666D01*
X43858333Y-35041666D01*
X43858333Y-34341666D01*
X44091666Y-34341666D01*
X44158333Y-34375000D01*
X44191666Y-34408333D01*
X44225000Y-34475000D01*
X44225000Y-34541666D01*
X44191666Y-34608333D01*
X44158333Y-34641666D01*
X44091666Y-34675000D01*
X43858333Y-34675000D01*
X44858333Y-34341666D02*
X44725000Y-34341666D01*
X44658333Y-34375000D01*
X44625000Y-34408333D01*
X44558333Y-34508333D01*
X44525000Y-34641666D01*
X44525000Y-34908333D01*
X44558333Y-34975000D01*
X44591666Y-35008333D01*
X44658333Y-35041666D01*
X44791666Y-35041666D01*
X44858333Y-35008333D01*
X44891666Y-34975000D01*
X44925000Y-34908333D01*
X44925000Y-34741666D01*
X44891666Y-34675000D01*
X44858333Y-34641666D01*
X44791666Y-34608333D01*
X44658333Y-34608333D01*
X44591666Y-34641666D01*
X44558333Y-34675000D01*
X44525000Y-34741666D01*
X50758333Y-34341666D02*
X51191666Y-34341666D01*
X50958333Y-34608333D01*
X51058333Y-34608333D01*
X51125000Y-34641666D01*
X51158333Y-34675000D01*
X51191666Y-34741666D01*
X51191666Y-34908333D01*
X51158333Y-34975000D01*
X51125000Y-35008333D01*
X51058333Y-35041666D01*
X50858333Y-35041666D01*
X50791666Y-35008333D01*
X50758333Y-34975000D01*
X51391666Y-34341666D02*
X51625000Y-35041666D01*
X51858333Y-34341666D01*
X52025000Y-34341666D02*
X52458333Y-34341666D01*
X52225000Y-34608333D01*
X52325000Y-34608333D01*
X52391666Y-34641666D01*
X52425000Y-34675000D01*
X52458333Y-34741666D01*
X52458333Y-34908333D01*
X52425000Y-34975000D01*
X52391666Y-35008333D01*
X52325000Y-35041666D01*
X52125000Y-35041666D01*
X52058333Y-35008333D01*
X52025000Y-34975000D01*
X45658333Y-35041666D02*
X45658333Y-34341666D01*
X45925000Y-34341666D01*
X45991666Y-34375000D01*
X46025000Y-34408333D01*
X46058333Y-34475000D01*
X46058333Y-34575000D01*
X46025000Y-34641666D01*
X45991666Y-34675000D01*
X45925000Y-34708333D01*
X45658333Y-34708333D01*
X46591666Y-34675000D02*
X46691666Y-34708333D01*
X46725000Y-34741666D01*
X46758333Y-34808333D01*
X46758333Y-34908333D01*
X46725000Y-34975000D01*
X46691666Y-35008333D01*
X46625000Y-35041666D01*
X46358333Y-35041666D01*
X46358333Y-34341666D01*
X46591666Y-34341666D01*
X46658333Y-34375000D01*
X46691666Y-34408333D01*
X46725000Y-34475000D01*
X46725000Y-34541666D01*
X46691666Y-34608333D01*
X46658333Y-34641666D01*
X46591666Y-34675000D01*
X46358333Y-34675000D01*
X46991666Y-34341666D02*
X47425000Y-34341666D01*
X47191666Y-34608333D01*
X47291666Y-34608333D01*
X47358333Y-34641666D01*
X47391666Y-34675000D01*
X47425000Y-34741666D01*
X47425000Y-34908333D01*
X47391666Y-34975000D01*
X47358333Y-35008333D01*
X47291666Y-35041666D01*
X47091666Y-35041666D01*
X47025000Y-35008333D01*
X46991666Y-34975000D01*
X48208333Y-35041666D02*
X48208333Y-34341666D01*
X48475000Y-34341666D01*
X48541666Y-34375000D01*
X48575000Y-34408333D01*
X48608333Y-34475000D01*
X48608333Y-34575000D01*
X48575000Y-34641666D01*
X48541666Y-34675000D01*
X48475000Y-34708333D01*
X48208333Y-34708333D01*
X49141666Y-34675000D02*
X49241666Y-34708333D01*
X49275000Y-34741666D01*
X49308333Y-34808333D01*
X49308333Y-34908333D01*
X49275000Y-34975000D01*
X49241666Y-35008333D01*
X49175000Y-35041666D01*
X48908333Y-35041666D01*
X48908333Y-34341666D01*
X49141666Y-34341666D01*
X49208333Y-34375000D01*
X49241666Y-34408333D01*
X49275000Y-34475000D01*
X49275000Y-34541666D01*
X49241666Y-34608333D01*
X49208333Y-34641666D01*
X49141666Y-34675000D01*
X48908333Y-34675000D01*
X49908333Y-34575000D02*
X49908333Y-35041666D01*
X49741666Y-34308333D02*
X49575000Y-34808333D01*
X50008333Y-34808333D01*
X53432142Y-35046428D02*
X53432142Y-34446428D01*
X53660714Y-34446428D01*
X53717857Y-34475000D01*
X53746428Y-34503571D01*
X53775000Y-34560714D01*
X53775000Y-34646428D01*
X53746428Y-34703571D01*
X53717857Y-34732142D01*
X53660714Y-34760714D01*
X53432142Y-34760714D01*
X54232142Y-34732142D02*
X54317857Y-34760714D01*
X54346428Y-34789285D01*
X54375000Y-34846428D01*
X54375000Y-34932142D01*
X54346428Y-34989285D01*
X54317857Y-35017857D01*
X54260714Y-35046428D01*
X54032142Y-35046428D01*
X54032142Y-34446428D01*
X54232142Y-34446428D01*
X54289285Y-34475000D01*
X54317857Y-34503571D01*
X54346428Y-34560714D01*
X54346428Y-34617857D01*
X54317857Y-34675000D01*
X54289285Y-34703571D01*
X54232142Y-34732142D01*
X54032142Y-34732142D01*
X54917857Y-34446428D02*
X54632142Y-34446428D01*
X54603571Y-34732142D01*
X54632142Y-34703571D01*
X54689285Y-34675000D01*
X54832142Y-34675000D01*
X54889285Y-34703571D01*
X54917857Y-34732142D01*
X54946428Y-34789285D01*
X54946428Y-34932142D01*
X54917857Y-34989285D01*
X54889285Y-35017857D01*
X54832142Y-35046428D01*
X54689285Y-35046428D01*
X54632142Y-35017857D01*
X54603571Y-34989285D01*
X32800000Y-22158333D02*
X32800000Y-22858333D01*
X32533333Y-22858333D01*
X32466666Y-22825000D01*
X32433333Y-22791666D01*
X32400000Y-22725000D01*
X32400000Y-22625000D01*
X32433333Y-22558333D01*
X32466666Y-22525000D01*
X32533333Y-22491666D01*
X32800000Y-22491666D01*
X31866666Y-22525000D02*
X31766666Y-22491666D01*
X31733333Y-22458333D01*
X31700000Y-22391666D01*
X31700000Y-22291666D01*
X31733333Y-22225000D01*
X31766666Y-22191666D01*
X31833333Y-22158333D01*
X32100000Y-22158333D01*
X32100000Y-22858333D01*
X31866666Y-22858333D01*
X31800000Y-22825000D01*
X31766666Y-22791666D01*
X31733333Y-22725000D01*
X31733333Y-22658333D01*
X31766666Y-22591666D01*
X31800000Y-22558333D01*
X31866666Y-22525000D01*
X32100000Y-22525000D01*
X31033333Y-22158333D02*
X31433333Y-22158333D01*
X31233333Y-22158333D02*
X31233333Y-22858333D01*
X31300000Y-22758333D01*
X31366666Y-22691666D01*
X31433333Y-22658333D01*
X30766666Y-22791666D02*
X30733333Y-22825000D01*
X30666666Y-22858333D01*
X30500000Y-22858333D01*
X30433333Y-22825000D01*
X30400000Y-22791666D01*
X30366666Y-22725000D01*
X30366666Y-22658333D01*
X30400000Y-22558333D01*
X30800000Y-22158333D01*
X30366666Y-22158333D01*
X29696666Y-22093333D02*
X29696666Y-22793333D01*
X29430000Y-22793333D01*
X29363333Y-22760000D01*
X29330000Y-22726666D01*
X29296666Y-22660000D01*
X29296666Y-22560000D01*
X29330000Y-22493333D01*
X29363333Y-22460000D01*
X29430000Y-22426666D01*
X29696666Y-22426666D01*
X28763333Y-22460000D02*
X28663333Y-22426666D01*
X28630000Y-22393333D01*
X28596666Y-22326666D01*
X28596666Y-22226666D01*
X28630000Y-22160000D01*
X28663333Y-22126666D01*
X28730000Y-22093333D01*
X28996666Y-22093333D01*
X28996666Y-22793333D01*
X28763333Y-22793333D01*
X28696666Y-22760000D01*
X28663333Y-22726666D01*
X28630000Y-22660000D01*
X28630000Y-22593333D01*
X28663333Y-22526666D01*
X28696666Y-22493333D01*
X28763333Y-22460000D01*
X28996666Y-22460000D01*
X28163333Y-22793333D02*
X28096666Y-22793333D01*
X28030000Y-22760000D01*
X27996666Y-22726666D01*
X27963333Y-22660000D01*
X27930000Y-22526666D01*
X27930000Y-22360000D01*
X27963333Y-22226666D01*
X27996666Y-22160000D01*
X28030000Y-22126666D01*
X28096666Y-22093333D01*
X28163333Y-22093333D01*
X28230000Y-22126666D01*
X28263333Y-22160000D01*
X28296666Y-22226666D01*
X28330000Y-22360000D01*
X28330000Y-22526666D01*
X28296666Y-22660000D01*
X28263333Y-22726666D01*
X28230000Y-22760000D01*
X28163333Y-22793333D01*
X58075000Y-22183333D02*
X58075000Y-22883333D01*
X57808333Y-22883333D01*
X57741666Y-22850000D01*
X57708333Y-22816666D01*
X57675000Y-22750000D01*
X57675000Y-22650000D01*
X57708333Y-22583333D01*
X57741666Y-22550000D01*
X57808333Y-22516666D01*
X58075000Y-22516666D01*
X57408333Y-22383333D02*
X57075000Y-22383333D01*
X57475000Y-22183333D02*
X57241666Y-22883333D01*
X57008333Y-22183333D01*
X56408333Y-22183333D02*
X56808333Y-22183333D01*
X56608333Y-22183333D02*
X56608333Y-22883333D01*
X56675000Y-22783333D01*
X56741666Y-22716666D01*
X56808333Y-22683333D01*
X55975000Y-22883333D02*
X55908333Y-22883333D01*
X55841666Y-22850000D01*
X55808333Y-22816666D01*
X55775000Y-22750000D01*
X55741666Y-22616666D01*
X55741666Y-22450000D01*
X55775000Y-22316666D01*
X55808333Y-22250000D01*
X55841666Y-22216666D01*
X55908333Y-22183333D01*
X55975000Y-22183333D01*
X56041666Y-22216666D01*
X56075000Y-22250000D01*
X56108333Y-22316666D01*
X56141666Y-22450000D01*
X56141666Y-22616666D01*
X56108333Y-22750000D01*
X56075000Y-22816666D01*
X56041666Y-22850000D01*
X55975000Y-22883333D01*
X55191666Y-22183333D02*
X55191666Y-22883333D01*
X54925000Y-22883333D01*
X54858333Y-22850000D01*
X54825000Y-22816666D01*
X54791666Y-22750000D01*
X54791666Y-22650000D01*
X54825000Y-22583333D01*
X54858333Y-22550000D01*
X54925000Y-22516666D01*
X55191666Y-22516666D01*
X54258333Y-22550000D02*
X54158333Y-22516666D01*
X54125000Y-22483333D01*
X54091666Y-22416666D01*
X54091666Y-22316666D01*
X54125000Y-22250000D01*
X54158333Y-22216666D01*
X54225000Y-22183333D01*
X54491666Y-22183333D01*
X54491666Y-22883333D01*
X54258333Y-22883333D01*
X54191666Y-22850000D01*
X54158333Y-22816666D01*
X54125000Y-22750000D01*
X54125000Y-22683333D01*
X54158333Y-22616666D01*
X54191666Y-22583333D01*
X54258333Y-22550000D01*
X54491666Y-22550000D01*
X53758333Y-22183333D02*
X53625000Y-22183333D01*
X53558333Y-22216666D01*
X53525000Y-22250000D01*
X53458333Y-22350000D01*
X53425000Y-22483333D01*
X53425000Y-22750000D01*
X53458333Y-22816666D01*
X53491666Y-22850000D01*
X53558333Y-22883333D01*
X53691666Y-22883333D01*
X53758333Y-22850000D01*
X53791666Y-22816666D01*
X53825000Y-22750000D01*
X53825000Y-22583333D01*
X53791666Y-22516666D01*
X53758333Y-22483333D01*
X53691666Y-22450000D01*
X53558333Y-22450000D01*
X53491666Y-22483333D01*
X53458333Y-22516666D01*
X53425000Y-22583333D01*
X39791666Y-22183333D02*
X39791666Y-22883333D01*
X39525000Y-22883333D01*
X39458333Y-22850000D01*
X39425000Y-22816666D01*
X39391666Y-22750000D01*
X39391666Y-22650000D01*
X39425000Y-22583333D01*
X39458333Y-22550000D01*
X39525000Y-22516666D01*
X39791666Y-22516666D01*
X39125000Y-22383333D02*
X38791666Y-22383333D01*
X39191666Y-22183333D02*
X38958333Y-22883333D01*
X38725000Y-22183333D01*
X38158333Y-22883333D02*
X38491666Y-22883333D01*
X38525000Y-22550000D01*
X38491666Y-22583333D01*
X38425000Y-22616666D01*
X38258333Y-22616666D01*
X38191666Y-22583333D01*
X38158333Y-22550000D01*
X38125000Y-22483333D01*
X38125000Y-22316666D01*
X38158333Y-22250000D01*
X38191666Y-22216666D01*
X38258333Y-22183333D01*
X38425000Y-22183333D01*
X38491666Y-22216666D01*
X38525000Y-22250000D01*
X42316666Y-22183333D02*
X42316666Y-22883333D01*
X42050000Y-22883333D01*
X41983333Y-22850000D01*
X41950000Y-22816666D01*
X41916666Y-22750000D01*
X41916666Y-22650000D01*
X41950000Y-22583333D01*
X41983333Y-22550000D01*
X42050000Y-22516666D01*
X42316666Y-22516666D01*
X41650000Y-22383333D02*
X41316666Y-22383333D01*
X41716666Y-22183333D02*
X41483333Y-22883333D01*
X41250000Y-22183333D01*
X40716666Y-22650000D02*
X40716666Y-22183333D01*
X40883333Y-22916666D02*
X41050000Y-22416666D01*
X40616666Y-22416666D01*
X52208333Y-22850000D02*
X52275000Y-22883333D01*
X52375000Y-22883333D01*
X52475000Y-22850000D01*
X52541666Y-22783333D01*
X52575000Y-22716666D01*
X52608333Y-22583333D01*
X52608333Y-22483333D01*
X52575000Y-22350000D01*
X52541666Y-22283333D01*
X52475000Y-22216666D01*
X52375000Y-22183333D01*
X52308333Y-22183333D01*
X52208333Y-22216666D01*
X52175000Y-22250000D01*
X52175000Y-22483333D01*
X52308333Y-22483333D01*
X51875000Y-22183333D02*
X51875000Y-22883333D01*
X51475000Y-22183333D01*
X51475000Y-22883333D01*
X51141666Y-22183333D02*
X51141666Y-22883333D01*
X50975000Y-22883333D01*
X50875000Y-22850000D01*
X50808333Y-22783333D01*
X50775000Y-22716666D01*
X50741666Y-22583333D01*
X50741666Y-22483333D01*
X50775000Y-22350000D01*
X50808333Y-22283333D01*
X50875000Y-22216666D01*
X50975000Y-22183333D01*
X51141666Y-22183333D01*
X49796666Y-22183333D02*
X49796666Y-22883333D01*
X49530000Y-22883333D01*
X49463333Y-22850000D01*
X49430000Y-22816666D01*
X49396666Y-22750000D01*
X49396666Y-22650000D01*
X49430000Y-22583333D01*
X49463333Y-22550000D01*
X49530000Y-22516666D01*
X49796666Y-22516666D01*
X49130000Y-22383333D02*
X48796666Y-22383333D01*
X49196666Y-22183333D02*
X48963333Y-22883333D01*
X48730000Y-22183333D01*
X48130000Y-22183333D02*
X48530000Y-22183333D01*
X48330000Y-22183333D02*
X48330000Y-22883333D01*
X48396666Y-22783333D01*
X48463333Y-22716666D01*
X48530000Y-22683333D01*
X47441666Y-22208333D02*
X47441666Y-22908333D01*
X47175000Y-22908333D01*
X47108333Y-22875000D01*
X47075000Y-22841666D01*
X47041666Y-22775000D01*
X47041666Y-22675000D01*
X47075000Y-22608333D01*
X47108333Y-22575000D01*
X47175000Y-22541666D01*
X47441666Y-22541666D01*
X46775000Y-22408333D02*
X46441666Y-22408333D01*
X46841666Y-22208333D02*
X46608333Y-22908333D01*
X46375000Y-22208333D01*
X46175000Y-22841666D02*
X46141666Y-22875000D01*
X46075000Y-22908333D01*
X45908333Y-22908333D01*
X45841666Y-22875000D01*
X45808333Y-22841666D01*
X45775000Y-22775000D01*
X45775000Y-22708333D01*
X45808333Y-22608333D01*
X46208333Y-22208333D01*
X45775000Y-22208333D01*
X44841666Y-22183333D02*
X44841666Y-22883333D01*
X44575000Y-22883333D01*
X44508333Y-22850000D01*
X44475000Y-22816666D01*
X44441666Y-22750000D01*
X44441666Y-22650000D01*
X44475000Y-22583333D01*
X44508333Y-22550000D01*
X44575000Y-22516666D01*
X44841666Y-22516666D01*
X44175000Y-22383333D02*
X43841666Y-22383333D01*
X44241666Y-22183333D02*
X44008333Y-22883333D01*
X43775000Y-22183333D01*
X43608333Y-22883333D02*
X43175000Y-22883333D01*
X43408333Y-22616666D01*
X43308333Y-22616666D01*
X43241666Y-22583333D01*
X43208333Y-22550000D01*
X43175000Y-22483333D01*
X43175000Y-22316666D01*
X43208333Y-22250000D01*
X43241666Y-22216666D01*
X43308333Y-22183333D01*
X43508333Y-22183333D01*
X43575000Y-22216666D01*
X43608333Y-22250000D01*
X25203571Y-22178571D02*
X25203571Y-22778571D01*
X24975000Y-22778571D01*
X24917857Y-22750000D01*
X24889285Y-22721428D01*
X24860714Y-22664285D01*
X24860714Y-22578571D01*
X24889285Y-22521428D01*
X24917857Y-22492857D01*
X24975000Y-22464285D01*
X25203571Y-22464285D01*
X24403571Y-22492857D02*
X24317857Y-22464285D01*
X24289285Y-22435714D01*
X24260714Y-22378571D01*
X24260714Y-22292857D01*
X24289285Y-22235714D01*
X24317857Y-22207142D01*
X24375000Y-22178571D01*
X24603571Y-22178571D01*
X24603571Y-22778571D01*
X24403571Y-22778571D01*
X24346428Y-22750000D01*
X24317857Y-22721428D01*
X24289285Y-22664285D01*
X24289285Y-22607142D01*
X24317857Y-22550000D01*
X24346428Y-22521428D01*
X24403571Y-22492857D01*
X24603571Y-22492857D01*
X23689285Y-22178571D02*
X24032142Y-22178571D01*
X23860714Y-22178571D02*
X23860714Y-22778571D01*
X23917857Y-22692857D01*
X23975000Y-22635714D01*
X24032142Y-22607142D01*
X23175000Y-22578571D02*
X23175000Y-22178571D01*
X23317857Y-22807142D02*
X23460714Y-22378571D01*
X23089285Y-22378571D01*
X27353571Y-22492857D02*
X27267857Y-22464285D01*
X27239285Y-22435714D01*
X27210714Y-22378571D01*
X27210714Y-22292857D01*
X27239285Y-22235714D01*
X27267857Y-22207142D01*
X27325000Y-22178571D01*
X27553571Y-22178571D01*
X27553571Y-22778571D01*
X27353571Y-22778571D01*
X27296428Y-22750000D01*
X27267857Y-22721428D01*
X27239285Y-22664285D01*
X27239285Y-22607142D01*
X27267857Y-22550000D01*
X27296428Y-22521428D01*
X27353571Y-22492857D01*
X27553571Y-22492857D01*
X26953571Y-22178571D02*
X26953571Y-22778571D01*
X26725000Y-22778571D01*
X26667857Y-22750000D01*
X26639285Y-22721428D01*
X26610714Y-22664285D01*
X26610714Y-22578571D01*
X26639285Y-22521428D01*
X26667857Y-22492857D01*
X26725000Y-22464285D01*
X26953571Y-22464285D01*
X26039285Y-22178571D02*
X26382142Y-22178571D01*
X26210714Y-22178571D02*
X26210714Y-22778571D01*
X26267857Y-22692857D01*
X26325000Y-22635714D01*
X26382142Y-22607142D01*
X25496428Y-22778571D02*
X25782142Y-22778571D01*
X25810714Y-22492857D01*
X25782142Y-22521428D01*
X25725000Y-22550000D01*
X25582142Y-22550000D01*
X25525000Y-22521428D01*
X25496428Y-22492857D01*
X25467857Y-22435714D01*
X25467857Y-22292857D01*
X25496428Y-22235714D01*
X25525000Y-22207142D01*
X25582142Y-22178571D01*
X25725000Y-22178571D01*
X25782142Y-22207142D01*
X25810714Y-22235714D01*
X37241666Y-22233333D02*
X37241666Y-22933333D01*
X36975000Y-22933333D01*
X36908333Y-22900000D01*
X36875000Y-22866666D01*
X36841666Y-22800000D01*
X36841666Y-22700000D01*
X36875000Y-22633333D01*
X36908333Y-22600000D01*
X36975000Y-22566666D01*
X37241666Y-22566666D01*
X36575000Y-22433333D02*
X36241666Y-22433333D01*
X36641666Y-22233333D02*
X36408333Y-22933333D01*
X36175000Y-22233333D01*
X35641666Y-22933333D02*
X35775000Y-22933333D01*
X35841666Y-22900000D01*
X35875000Y-22866666D01*
X35941666Y-22766666D01*
X35975000Y-22633333D01*
X35975000Y-22366666D01*
X35941666Y-22300000D01*
X35908333Y-22266666D01*
X35841666Y-22233333D01*
X35708333Y-22233333D01*
X35641666Y-22266666D01*
X35608333Y-22300000D01*
X35575000Y-22366666D01*
X35575000Y-22533333D01*
X35608333Y-22600000D01*
X35641666Y-22633333D01*
X35708333Y-22666666D01*
X35841666Y-22666666D01*
X35908333Y-22633333D01*
X35941666Y-22600000D01*
X35975000Y-22533333D01*
X34916666Y-22208333D02*
X34916666Y-22908333D01*
X34650000Y-22908333D01*
X34583333Y-22875000D01*
X34550000Y-22841666D01*
X34516666Y-22775000D01*
X34516666Y-22675000D01*
X34550000Y-22608333D01*
X34583333Y-22575000D01*
X34650000Y-22541666D01*
X34916666Y-22541666D01*
X34250000Y-22408333D02*
X33916666Y-22408333D01*
X34316666Y-22208333D02*
X34083333Y-22908333D01*
X33850000Y-22208333D01*
X33683333Y-22908333D02*
X33216666Y-22908333D01*
X33516666Y-22208333D01*
X60166666Y-22183333D02*
X60166666Y-22883333D01*
X59900000Y-22883333D01*
X59833333Y-22850000D01*
X59800000Y-22816666D01*
X59766666Y-22750000D01*
X59766666Y-22650000D01*
X59800000Y-22583333D01*
X59833333Y-22550000D01*
X59900000Y-22516666D01*
X60166666Y-22516666D01*
X59500000Y-22383333D02*
X59166666Y-22383333D01*
X59566666Y-22183333D02*
X59333333Y-22883333D01*
X59100000Y-22183333D01*
X58833333Y-22183333D02*
X58700000Y-22183333D01*
X58633333Y-22216666D01*
X58600000Y-22250000D01*
X58533333Y-22350000D01*
X58500000Y-22483333D01*
X58500000Y-22750000D01*
X58533333Y-22816666D01*
X58566666Y-22850000D01*
X58633333Y-22883333D01*
X58766666Y-22883333D01*
X58833333Y-22850000D01*
X58866666Y-22816666D01*
X58900000Y-22750000D01*
X58900000Y-22583333D01*
X58866666Y-22516666D01*
X58833333Y-22483333D01*
X58766666Y-22450000D01*
X58633333Y-22450000D01*
X58566666Y-22483333D01*
X58533333Y-22516666D01*
X58500000Y-22583333D01*
X24076666Y-23793809D02*
X23910000Y-23293809D01*
X23743333Y-23793809D01*
X23576666Y-23793809D02*
X23576666Y-23389047D01*
X23552857Y-23341428D01*
X23529047Y-23317619D01*
X23481428Y-23293809D01*
X23386190Y-23293809D01*
X23338571Y-23317619D01*
X23314761Y-23341428D01*
X23290952Y-23389047D01*
X23290952Y-23793809D01*
X23076666Y-23317619D02*
X23005238Y-23293809D01*
X22886190Y-23293809D01*
X22838571Y-23317619D01*
X22814761Y-23341428D01*
X22790952Y-23389047D01*
X22790952Y-23436666D01*
X22814761Y-23484285D01*
X22838571Y-23508095D01*
X22886190Y-23531904D01*
X22981428Y-23555714D01*
X23029047Y-23579523D01*
X23052857Y-23603333D01*
X23076666Y-23650952D01*
X23076666Y-23698571D01*
X23052857Y-23746190D01*
X23029047Y-23770000D01*
X22981428Y-23793809D01*
X22862380Y-23793809D01*
X22790952Y-23770000D01*
X22410000Y-23555714D02*
X22338571Y-23531904D01*
X22314761Y-23508095D01*
X22290952Y-23460476D01*
X22290952Y-23389047D01*
X22314761Y-23341428D01*
X22338571Y-23317619D01*
X22386190Y-23293809D01*
X22576666Y-23293809D01*
X22576666Y-23793809D01*
X22410000Y-23793809D01*
X22362380Y-23770000D01*
X22338571Y-23746190D01*
X22314761Y-23698571D01*
X22314761Y-23650952D01*
X22338571Y-23603333D01*
X22362380Y-23579523D01*
X22410000Y-23555714D01*
X22576666Y-23555714D01*
X61740952Y-20846190D02*
X62050476Y-20846190D01*
X61883809Y-21036666D01*
X61955238Y-21036666D01*
X62002857Y-21060476D01*
X62026666Y-21084285D01*
X62050476Y-21131904D01*
X62050476Y-21250952D01*
X62026666Y-21298571D01*
X62002857Y-21322380D01*
X61955238Y-21346190D01*
X61812380Y-21346190D01*
X61764761Y-21322380D01*
X61740952Y-21298571D01*
X62193333Y-20846190D02*
X62360000Y-21346190D01*
X62526666Y-20846190D01*
X62645714Y-20846190D02*
X62955238Y-20846190D01*
X62788571Y-21036666D01*
X62860000Y-21036666D01*
X62907619Y-21060476D01*
X62931428Y-21084285D01*
X62955238Y-21131904D01*
X62955238Y-21250952D01*
X62931428Y-21298571D01*
X62907619Y-21322380D01*
X62860000Y-21346190D01*
X62717142Y-21346190D01*
X62669523Y-21322380D01*
X62645714Y-21298571D01*
X57295000Y-25397142D02*
X57266428Y-25454285D01*
X57266428Y-25540000D01*
X57295000Y-25625714D01*
X57352142Y-25682857D01*
X57409285Y-25711428D01*
X57523571Y-25740000D01*
X57609285Y-25740000D01*
X57723571Y-25711428D01*
X57780714Y-25682857D01*
X57837857Y-25625714D01*
X57866428Y-25540000D01*
X57866428Y-25482857D01*
X57837857Y-25397142D01*
X57809285Y-25368571D01*
X57609285Y-25368571D01*
X57609285Y-25482857D01*
X57866428Y-25111428D02*
X57266428Y-25111428D01*
X57866428Y-24768571D01*
X57266428Y-24768571D01*
X57866428Y-24482857D02*
X57266428Y-24482857D01*
X57266428Y-24340000D01*
X57295000Y-24254285D01*
X57352142Y-24197142D01*
X57409285Y-24168571D01*
X57523571Y-24140000D01*
X57609285Y-24140000D01*
X57723571Y-24168571D01*
X57780714Y-24197142D01*
X57837857Y-24254285D01*
X57866428Y-24340000D01*
X57866428Y-24482857D01*
D13*
X49069047Y-33272857D02*
X48802380Y-33272857D01*
X48802380Y-33691904D02*
X48802380Y-32891904D01*
X49183333Y-32891904D01*
X49602380Y-33691904D02*
X49526190Y-33653809D01*
X49488095Y-33615714D01*
X49450000Y-33539523D01*
X49450000Y-33310952D01*
X49488095Y-33234761D01*
X49526190Y-33196666D01*
X49602380Y-33158571D01*
X49716666Y-33158571D01*
X49792857Y-33196666D01*
X49830952Y-33234761D01*
X49869047Y-33310952D01*
X49869047Y-33539523D01*
X49830952Y-33615714D01*
X49792857Y-33653809D01*
X49716666Y-33691904D01*
X49602380Y-33691904D01*
X50135714Y-33691904D02*
X50554761Y-33158571D01*
X50135714Y-33158571D02*
X50554761Y-33691904D01*
X50859523Y-33691904D02*
X50859523Y-32891904D01*
X51164285Y-32891904D01*
X51240476Y-32930000D01*
X51278571Y-32968095D01*
X51316666Y-33044285D01*
X51316666Y-33158571D01*
X51278571Y-33234761D01*
X51240476Y-33272857D01*
X51164285Y-33310952D01*
X50859523Y-33310952D01*
X51659523Y-33691904D02*
X51659523Y-33158571D01*
X51659523Y-32891904D02*
X51621428Y-32930000D01*
X51659523Y-32968095D01*
X51697619Y-32930000D01*
X51659523Y-32891904D01*
X51659523Y-32968095D01*
X52154761Y-33691904D02*
X52078571Y-33653809D01*
X52040476Y-33577619D01*
X52040476Y-32891904D01*
X52573809Y-33691904D02*
X52497619Y-33653809D01*
X52459523Y-33577619D01*
X52459523Y-32891904D01*
D11*
X22579047Y-33340000D02*
X22531428Y-33316190D01*
X22460000Y-33316190D01*
X22388571Y-33340000D01*
X22340952Y-33387619D01*
X22317142Y-33435238D01*
X22293333Y-33530476D01*
X22293333Y-33601904D01*
X22317142Y-33697142D01*
X22340952Y-33744761D01*
X22388571Y-33792380D01*
X22460000Y-33816190D01*
X22507619Y-33816190D01*
X22579047Y-33792380D01*
X22602857Y-33768571D01*
X22602857Y-33601904D01*
X22507619Y-33601904D01*
X22817142Y-33816190D02*
X22817142Y-33316190D01*
X23102857Y-33816190D01*
X23102857Y-33316190D01*
X23340952Y-33816190D02*
X23340952Y-33316190D01*
X23460000Y-33316190D01*
X23531428Y-33340000D01*
X23579047Y-33387619D01*
X23602857Y-33435238D01*
X23626666Y-33530476D01*
X23626666Y-33601904D01*
X23602857Y-33697142D01*
X23579047Y-33744761D01*
X23531428Y-33792380D01*
X23460000Y-33816190D01*
X23340952Y-33816190D01*
D14*
X60953571Y-35096428D02*
X60503571Y-35096428D01*
X60503571Y-34989285D01*
X60525000Y-34925000D01*
X60567857Y-34882142D01*
X60610714Y-34860714D01*
X60696428Y-34839285D01*
X60760714Y-34839285D01*
X60846428Y-34860714D01*
X60889285Y-34882142D01*
X60932142Y-34925000D01*
X60953571Y-34989285D01*
X60953571Y-35096428D01*
X60717857Y-34496428D02*
X60717857Y-34646428D01*
X60953571Y-34646428D02*
X60503571Y-34646428D01*
X60503571Y-34432142D01*
X60503571Y-34260714D02*
X60867857Y-34260714D01*
X60910714Y-34239285D01*
X60932142Y-34217857D01*
X60953571Y-34175000D01*
X60953571Y-34089285D01*
X60932142Y-34046428D01*
X60910714Y-34025000D01*
X60867857Y-34003571D01*
X60503571Y-34003571D01*
D11*
X57946428Y-30550000D02*
X57346428Y-30550000D01*
X57346428Y-30321428D01*
X57375000Y-30264285D01*
X57403571Y-30235714D01*
X57460714Y-30207142D01*
X57546428Y-30207142D01*
X57603571Y-30235714D01*
X57632142Y-30264285D01*
X57660714Y-30321428D01*
X57660714Y-30550000D01*
X57632142Y-29750000D02*
X57632142Y-29950000D01*
X57946428Y-29950000D02*
X57346428Y-29950000D01*
X57346428Y-29664285D01*
X57346428Y-29321428D02*
X57346428Y-29264285D01*
X57375000Y-29207142D01*
X57403571Y-29178571D01*
X57460714Y-29150000D01*
X57575000Y-29121428D01*
X57717857Y-29121428D01*
X57832142Y-29150000D01*
X57889285Y-29178571D01*
X57917857Y-29207142D01*
X57946428Y-29264285D01*
X57946428Y-29321428D01*
X57917857Y-29378571D01*
X57889285Y-29407142D01*
X57832142Y-29435714D01*
X57717857Y-29464285D01*
X57575000Y-29464285D01*
X57460714Y-29435714D01*
X57403571Y-29407142D01*
X57375000Y-29378571D01*
X57346428Y-29321428D01*
X57921428Y-33150000D02*
X57321428Y-33150000D01*
X57321428Y-32921428D01*
X57350000Y-32864285D01*
X57378571Y-32835714D01*
X57435714Y-32807142D01*
X57521428Y-32807142D01*
X57578571Y-32835714D01*
X57607142Y-32864285D01*
X57635714Y-32921428D01*
X57635714Y-33150000D01*
X57607142Y-32350000D02*
X57607142Y-32550000D01*
X57921428Y-32550000D02*
X57321428Y-32550000D01*
X57321428Y-32264285D01*
X57921428Y-31721428D02*
X57921428Y-32064285D01*
X57921428Y-31892857D02*
X57321428Y-31892857D01*
X57407142Y-31950000D01*
X57464285Y-32007142D01*
X57492857Y-32064285D01*
X57346428Y-28092857D02*
X57346428Y-27721428D01*
X57575000Y-27921428D01*
X57575000Y-27835714D01*
X57603571Y-27778571D01*
X57632142Y-27750000D01*
X57689285Y-27721428D01*
X57832142Y-27721428D01*
X57889285Y-27750000D01*
X57917857Y-27778571D01*
X57946428Y-27835714D01*
X57946428Y-28007142D01*
X57917857Y-28064285D01*
X57889285Y-28092857D01*
X57346428Y-27550000D02*
X57946428Y-27350000D01*
X57346428Y-27150000D01*
X57346428Y-27007142D02*
X57346428Y-26635714D01*
X57575000Y-26835714D01*
X57575000Y-26750000D01*
X57603571Y-26692857D01*
X57632142Y-26664285D01*
X57689285Y-26635714D01*
X57832142Y-26635714D01*
X57889285Y-26664285D01*
X57917857Y-26692857D01*
X57946428Y-26750000D01*
X57946428Y-26921428D01*
X57917857Y-26978571D01*
X57889285Y-27007142D01*
X25358333Y-34341666D02*
X25791666Y-34341666D01*
X25558333Y-34608333D01*
X25658333Y-34608333D01*
X25725000Y-34641666D01*
X25758333Y-34675000D01*
X25791666Y-34741666D01*
X25791666Y-34908333D01*
X25758333Y-34975000D01*
X25725000Y-35008333D01*
X25658333Y-35041666D01*
X25458333Y-35041666D01*
X25391666Y-35008333D01*
X25358333Y-34975000D01*
X25991666Y-34341666D02*
X26225000Y-35041666D01*
X26458333Y-34341666D01*
X26625000Y-34341666D02*
X27058333Y-34341666D01*
X26825000Y-34608333D01*
X26925000Y-34608333D01*
X26991666Y-34641666D01*
X27025000Y-34675000D01*
X27058333Y-34741666D01*
X27058333Y-34908333D01*
X27025000Y-34975000D01*
X26991666Y-35008333D01*
X26925000Y-35041666D01*
X26725000Y-35041666D01*
X26658333Y-35008333D01*
X26625000Y-34975000D01*
D14*
X27615000Y-31503571D02*
X27465000Y-31289285D01*
X27357857Y-31503571D02*
X27357857Y-31053571D01*
X27529285Y-31053571D01*
X27572142Y-31075000D01*
X27593571Y-31096428D01*
X27615000Y-31139285D01*
X27615000Y-31203571D01*
X27593571Y-31246428D01*
X27572142Y-31267857D01*
X27529285Y-31289285D01*
X27357857Y-31289285D01*
X28043571Y-31503571D02*
X27786428Y-31503571D01*
X27915000Y-31503571D02*
X27915000Y-31053571D01*
X27872142Y-31117857D01*
X27829285Y-31160714D01*
X27786428Y-31182142D01*
X27755000Y-26553571D02*
X27605000Y-26339285D01*
X27497857Y-26553571D02*
X27497857Y-26103571D01*
X27669285Y-26103571D01*
X27712142Y-26125000D01*
X27733571Y-26146428D01*
X27755000Y-26189285D01*
X27755000Y-26253571D01*
X27733571Y-26296428D01*
X27712142Y-26317857D01*
X27669285Y-26339285D01*
X27497857Y-26339285D01*
X27926428Y-26146428D02*
X27947857Y-26125000D01*
X27990714Y-26103571D01*
X28097857Y-26103571D01*
X28140714Y-26125000D01*
X28162142Y-26146428D01*
X28183571Y-26189285D01*
X28183571Y-26232142D01*
X28162142Y-26296428D01*
X27905000Y-26553571D01*
X28183571Y-26553571D01*
X27735000Y-25103571D02*
X27585000Y-24889285D01*
X27477857Y-25103571D02*
X27477857Y-24653571D01*
X27649285Y-24653571D01*
X27692142Y-24675000D01*
X27713571Y-24696428D01*
X27735000Y-24739285D01*
X27735000Y-24803571D01*
X27713571Y-24846428D01*
X27692142Y-24867857D01*
X27649285Y-24889285D01*
X27477857Y-24889285D01*
X27885000Y-24653571D02*
X28163571Y-24653571D01*
X28013571Y-24825000D01*
X28077857Y-24825000D01*
X28120714Y-24846428D01*
X28142142Y-24867857D01*
X28163571Y-24910714D01*
X28163571Y-25017857D01*
X28142142Y-25060714D01*
X28120714Y-25082142D01*
X28077857Y-25103571D01*
X27949285Y-25103571D01*
X27906428Y-25082142D01*
X27885000Y-25060714D01*
X27545000Y-32403571D02*
X27395000Y-32189285D01*
X27287857Y-32403571D02*
X27287857Y-31953571D01*
X27459285Y-31953571D01*
X27502142Y-31975000D01*
X27523571Y-31996428D01*
X27545000Y-32039285D01*
X27545000Y-32103571D01*
X27523571Y-32146428D01*
X27502142Y-32167857D01*
X27459285Y-32189285D01*
X27287857Y-32189285D01*
X27930714Y-32103571D02*
X27930714Y-32403571D01*
X27823571Y-31932142D02*
X27716428Y-32253571D01*
X27995000Y-32253571D01*
X30907142Y-26528571D02*
X30907142Y-26892857D01*
X30928571Y-26935714D01*
X30950000Y-26957142D01*
X30992857Y-26978571D01*
X31078571Y-26978571D01*
X31121428Y-26957142D01*
X31142857Y-26935714D01*
X31164285Y-26892857D01*
X31164285Y-26528571D01*
X31614285Y-26978571D02*
X31357142Y-26978571D01*
X31485714Y-26978571D02*
X31485714Y-26528571D01*
X31442857Y-26592857D01*
X31400000Y-26635714D01*
X31357142Y-26657142D01*
X31525000Y-25463571D02*
X31375000Y-25249285D01*
X31267857Y-25463571D02*
X31267857Y-25013571D01*
X31439285Y-25013571D01*
X31482142Y-25035000D01*
X31503571Y-25056428D01*
X31525000Y-25099285D01*
X31525000Y-25163571D01*
X31503571Y-25206428D01*
X31482142Y-25227857D01*
X31439285Y-25249285D01*
X31267857Y-25249285D01*
X31782142Y-25206428D02*
X31739285Y-25185000D01*
X31717857Y-25163571D01*
X31696428Y-25120714D01*
X31696428Y-25099285D01*
X31717857Y-25056428D01*
X31739285Y-25035000D01*
X31782142Y-25013571D01*
X31867857Y-25013571D01*
X31910714Y-25035000D01*
X31932142Y-25056428D01*
X31953571Y-25099285D01*
X31953571Y-25120714D01*
X31932142Y-25163571D01*
X31910714Y-25185000D01*
X31867857Y-25206428D01*
X31782142Y-25206428D01*
X31739285Y-25227857D01*
X31717857Y-25249285D01*
X31696428Y-25292142D01*
X31696428Y-25377857D01*
X31717857Y-25420714D01*
X31739285Y-25442142D01*
X31782142Y-25463571D01*
X31867857Y-25463571D01*
X31910714Y-25442142D01*
X31932142Y-25420714D01*
X31953571Y-25377857D01*
X31953571Y-25292142D01*
X31932142Y-25249285D01*
X31910714Y-25227857D01*
X31867857Y-25206428D01*
X31553571Y-31325000D02*
X31339285Y-31475000D01*
X31553571Y-31582142D02*
X31103571Y-31582142D01*
X31103571Y-31410714D01*
X31125000Y-31367857D01*
X31146428Y-31346428D01*
X31189285Y-31325000D01*
X31253571Y-31325000D01*
X31296428Y-31346428D01*
X31317857Y-31367857D01*
X31339285Y-31410714D01*
X31339285Y-31582142D01*
X31553571Y-31110714D02*
X31553571Y-31025000D01*
X31532142Y-30982142D01*
X31510714Y-30960714D01*
X31446428Y-30917857D01*
X31360714Y-30896428D01*
X31189285Y-30896428D01*
X31146428Y-30917857D01*
X31125000Y-30939285D01*
X31103571Y-30982142D01*
X31103571Y-31067857D01*
X31125000Y-31110714D01*
X31146428Y-31132142D01*
X31189285Y-31153571D01*
X31296428Y-31153571D01*
X31339285Y-31132142D01*
X31360714Y-31110714D01*
X31382142Y-31067857D01*
X31382142Y-30982142D01*
X31360714Y-30939285D01*
X31339285Y-30917857D01*
X31296428Y-30896428D01*
X31587142Y-29673571D02*
X31587142Y-30037857D01*
X31608571Y-30080714D01*
X31630000Y-30102142D01*
X31672857Y-30123571D01*
X31758571Y-30123571D01*
X31801428Y-30102142D01*
X31822857Y-30080714D01*
X31844285Y-30037857D01*
X31844285Y-29673571D01*
X32251428Y-29823571D02*
X32251428Y-30123571D01*
X32144285Y-29652142D02*
X32037142Y-29973571D01*
X32315714Y-29973571D01*
X48875000Y-32460714D02*
X48853571Y-32482142D01*
X48789285Y-32503571D01*
X48746428Y-32503571D01*
X48682142Y-32482142D01*
X48639285Y-32439285D01*
X48617857Y-32396428D01*
X48596428Y-32310714D01*
X48596428Y-32246428D01*
X48617857Y-32160714D01*
X48639285Y-32117857D01*
X48682142Y-32075000D01*
X48746428Y-32053571D01*
X48789285Y-32053571D01*
X48853571Y-32075000D01*
X48875000Y-32096428D01*
X49260714Y-32053571D02*
X49175000Y-32053571D01*
X49132142Y-32075000D01*
X49110714Y-32096428D01*
X49067857Y-32160714D01*
X49046428Y-32246428D01*
X49046428Y-32417857D01*
X49067857Y-32460714D01*
X49089285Y-32482142D01*
X49132142Y-32503571D01*
X49217857Y-32503571D01*
X49260714Y-32482142D01*
X49282142Y-32460714D01*
X49303571Y-32417857D01*
X49303571Y-32310714D01*
X49282142Y-32267857D01*
X49260714Y-32246428D01*
X49217857Y-32225000D01*
X49132142Y-32225000D01*
X49089285Y-32246428D01*
X49067857Y-32267857D01*
X49046428Y-32310714D01*
X36760714Y-29125000D02*
X36782142Y-29146428D01*
X36803571Y-29210714D01*
X36803571Y-29253571D01*
X36782142Y-29317857D01*
X36739285Y-29360714D01*
X36696428Y-29382142D01*
X36610714Y-29403571D01*
X36546428Y-29403571D01*
X36460714Y-29382142D01*
X36417857Y-29360714D01*
X36375000Y-29317857D01*
X36353571Y-29253571D01*
X36353571Y-29210714D01*
X36375000Y-29146428D01*
X36396428Y-29125000D01*
X36353571Y-28975000D02*
X36353571Y-28675000D01*
X36803571Y-28867857D01*
X36695714Y-31165000D02*
X36717142Y-31186428D01*
X36738571Y-31250714D01*
X36738571Y-31293571D01*
X36717142Y-31357857D01*
X36674285Y-31400714D01*
X36631428Y-31422142D01*
X36545714Y-31443571D01*
X36481428Y-31443571D01*
X36395714Y-31422142D01*
X36352857Y-31400714D01*
X36310000Y-31357857D01*
X36288571Y-31293571D01*
X36288571Y-31250714D01*
X36310000Y-31186428D01*
X36331428Y-31165000D01*
X36481428Y-30907857D02*
X36460000Y-30950714D01*
X36438571Y-30972142D01*
X36395714Y-30993571D01*
X36374285Y-30993571D01*
X36331428Y-30972142D01*
X36310000Y-30950714D01*
X36288571Y-30907857D01*
X36288571Y-30822142D01*
X36310000Y-30779285D01*
X36331428Y-30757857D01*
X36374285Y-30736428D01*
X36395714Y-30736428D01*
X36438571Y-30757857D01*
X36460000Y-30779285D01*
X36481428Y-30822142D01*
X36481428Y-30907857D01*
X36502857Y-30950714D01*
X36524285Y-30972142D01*
X36567142Y-30993571D01*
X36652857Y-30993571D01*
X36695714Y-30972142D01*
X36717142Y-30950714D01*
X36738571Y-30907857D01*
X36738571Y-30822142D01*
X36717142Y-30779285D01*
X36695714Y-30757857D01*
X36652857Y-30736428D01*
X36567142Y-30736428D01*
X36524285Y-30757857D01*
X36502857Y-30779285D01*
X36481428Y-30822142D01*
X35910714Y-31139285D02*
X35932142Y-31160714D01*
X35953571Y-31225000D01*
X35953571Y-31267857D01*
X35932142Y-31332142D01*
X35889285Y-31375000D01*
X35846428Y-31396428D01*
X35760714Y-31417857D01*
X35696428Y-31417857D01*
X35610714Y-31396428D01*
X35567857Y-31375000D01*
X35525000Y-31332142D01*
X35503571Y-31267857D01*
X35503571Y-31225000D01*
X35525000Y-31160714D01*
X35546428Y-31139285D01*
X35953571Y-30710714D02*
X35953571Y-30967857D01*
X35953571Y-30839285D02*
X35503571Y-30839285D01*
X35567857Y-30882142D01*
X35610714Y-30925000D01*
X35632142Y-30967857D01*
X35503571Y-30432142D02*
X35503571Y-30389285D01*
X35525000Y-30346428D01*
X35546428Y-30325000D01*
X35589285Y-30303571D01*
X35675000Y-30282142D01*
X35782142Y-30282142D01*
X35867857Y-30303571D01*
X35910714Y-30325000D01*
X35932142Y-30346428D01*
X35953571Y-30389285D01*
X35953571Y-30432142D01*
X35932142Y-30475000D01*
X35910714Y-30496428D01*
X35867857Y-30517857D01*
X35782142Y-30539285D01*
X35675000Y-30539285D01*
X35589285Y-30517857D01*
X35546428Y-30496428D01*
X35525000Y-30475000D01*
X35503571Y-30432142D01*
X36333571Y-24419285D02*
X36119285Y-24569285D01*
X36333571Y-24676428D02*
X35883571Y-24676428D01*
X35883571Y-24505000D01*
X35905000Y-24462142D01*
X35926428Y-24440714D01*
X35969285Y-24419285D01*
X36033571Y-24419285D01*
X36076428Y-24440714D01*
X36097857Y-24462142D01*
X36119285Y-24505000D01*
X36119285Y-24676428D01*
X36333571Y-23990714D02*
X36333571Y-24247857D01*
X36333571Y-24119285D02*
X35883571Y-24119285D01*
X35947857Y-24162142D01*
X35990714Y-24205000D01*
X36012142Y-24247857D01*
X35883571Y-23712142D02*
X35883571Y-23669285D01*
X35905000Y-23626428D01*
X35926428Y-23605000D01*
X35969285Y-23583571D01*
X36055000Y-23562142D01*
X36162142Y-23562142D01*
X36247857Y-23583571D01*
X36290714Y-23605000D01*
X36312142Y-23626428D01*
X36333571Y-23669285D01*
X36333571Y-23712142D01*
X36312142Y-23755000D01*
X36290714Y-23776428D01*
X36247857Y-23797857D01*
X36162142Y-23819285D01*
X36055000Y-23819285D01*
X35969285Y-23797857D01*
X35926428Y-23776428D01*
X35905000Y-23755000D01*
X35883571Y-23712142D01*
X37183571Y-24419285D02*
X36969285Y-24569285D01*
X37183571Y-24676428D02*
X36733571Y-24676428D01*
X36733571Y-24505000D01*
X36755000Y-24462142D01*
X36776428Y-24440714D01*
X36819285Y-24419285D01*
X36883571Y-24419285D01*
X36926428Y-24440714D01*
X36947857Y-24462142D01*
X36969285Y-24505000D01*
X36969285Y-24676428D01*
X37183571Y-23990714D02*
X37183571Y-24247857D01*
X37183571Y-24119285D02*
X36733571Y-24119285D01*
X36797857Y-24162142D01*
X36840714Y-24205000D01*
X36862142Y-24247857D01*
X37183571Y-23562142D02*
X37183571Y-23819285D01*
X37183571Y-23690714D02*
X36733571Y-23690714D01*
X36797857Y-23733571D01*
X36840714Y-23776428D01*
X36862142Y-23819285D01*
X48753571Y-28775000D02*
X48539285Y-28925000D01*
X48753571Y-29032142D02*
X48303571Y-29032142D01*
X48303571Y-28860714D01*
X48325000Y-28817857D01*
X48346428Y-28796428D01*
X48389285Y-28775000D01*
X48453571Y-28775000D01*
X48496428Y-28796428D01*
X48517857Y-28817857D01*
X48539285Y-28860714D01*
X48539285Y-29032142D01*
X48303571Y-28389285D02*
X48303571Y-28475000D01*
X48325000Y-28517857D01*
X48346428Y-28539285D01*
X48410714Y-28582142D01*
X48496428Y-28603571D01*
X48667857Y-28603571D01*
X48710714Y-28582142D01*
X48732142Y-28560714D01*
X48753571Y-28517857D01*
X48753571Y-28432142D01*
X48732142Y-28389285D01*
X48710714Y-28367857D01*
X48667857Y-28346428D01*
X48560714Y-28346428D01*
X48517857Y-28367857D01*
X48496428Y-28389285D01*
X48475000Y-28432142D01*
X48475000Y-28517857D01*
X48496428Y-28560714D01*
X48517857Y-28582142D01*
X48560714Y-28603571D01*
X54270714Y-25355000D02*
X54292142Y-25376428D01*
X54313571Y-25440714D01*
X54313571Y-25483571D01*
X54292142Y-25547857D01*
X54249285Y-25590714D01*
X54206428Y-25612142D01*
X54120714Y-25633571D01*
X54056428Y-25633571D01*
X53970714Y-25612142D01*
X53927857Y-25590714D01*
X53885000Y-25547857D01*
X53863571Y-25483571D01*
X53863571Y-25440714D01*
X53885000Y-25376428D01*
X53906428Y-25355000D01*
X53863571Y-25205000D02*
X53863571Y-24926428D01*
X54035000Y-25076428D01*
X54035000Y-25012142D01*
X54056428Y-24969285D01*
X54077857Y-24947857D01*
X54120714Y-24926428D01*
X54227857Y-24926428D01*
X54270714Y-24947857D01*
X54292142Y-24969285D01*
X54313571Y-25012142D01*
X54313571Y-25140714D01*
X54292142Y-25183571D01*
X54270714Y-25205000D01*
X53773571Y-26822857D02*
X54137857Y-26822857D01*
X54180714Y-26801428D01*
X54202142Y-26780000D01*
X54223571Y-26737142D01*
X54223571Y-26651428D01*
X54202142Y-26608571D01*
X54180714Y-26587142D01*
X54137857Y-26565714D01*
X53773571Y-26565714D01*
X53773571Y-26394285D02*
X53773571Y-26115714D01*
X53945000Y-26265714D01*
X53945000Y-26201428D01*
X53966428Y-26158571D01*
X53987857Y-26137142D01*
X54030714Y-26115714D01*
X54137857Y-26115714D01*
X54180714Y-26137142D01*
X54202142Y-26158571D01*
X54223571Y-26201428D01*
X54223571Y-26330000D01*
X54202142Y-26372857D01*
X54180714Y-26394285D01*
X54625000Y-32383571D02*
X54475000Y-32169285D01*
X54367857Y-32383571D02*
X54367857Y-31933571D01*
X54539285Y-31933571D01*
X54582142Y-31955000D01*
X54603571Y-31976428D01*
X54625000Y-32019285D01*
X54625000Y-32083571D01*
X54603571Y-32126428D01*
X54582142Y-32147857D01*
X54539285Y-32169285D01*
X54367857Y-32169285D01*
X55032142Y-31933571D02*
X54817857Y-31933571D01*
X54796428Y-32147857D01*
X54817857Y-32126428D01*
X54860714Y-32105000D01*
X54967857Y-32105000D01*
X55010714Y-32126428D01*
X55032142Y-32147857D01*
X55053571Y-32190714D01*
X55053571Y-32297857D01*
X55032142Y-32340714D01*
X55010714Y-32362142D01*
X54967857Y-32383571D01*
X54860714Y-32383571D01*
X54817857Y-32362142D01*
X54796428Y-32340714D01*
X49103571Y-27675000D02*
X48889285Y-27825000D01*
X49103571Y-27932142D02*
X48653571Y-27932142D01*
X48653571Y-27760714D01*
X48675000Y-27717857D01*
X48696428Y-27696428D01*
X48739285Y-27675000D01*
X48803571Y-27675000D01*
X48846428Y-27696428D01*
X48867857Y-27717857D01*
X48889285Y-27760714D01*
X48889285Y-27932142D01*
X48653571Y-27525000D02*
X48653571Y-27225000D01*
X49103571Y-27417857D01*
X56415000Y-31140714D02*
X56393571Y-31162142D01*
X56329285Y-31183571D01*
X56286428Y-31183571D01*
X56222142Y-31162142D01*
X56179285Y-31119285D01*
X56157857Y-31076428D01*
X56136428Y-30990714D01*
X56136428Y-30926428D01*
X56157857Y-30840714D01*
X56179285Y-30797857D01*
X56222142Y-30755000D01*
X56286428Y-30733571D01*
X56329285Y-30733571D01*
X56393571Y-30755000D01*
X56415000Y-30776428D01*
X56800714Y-30883571D02*
X56800714Y-31183571D01*
X56693571Y-30712142D02*
X56586428Y-31033571D01*
X56865000Y-31033571D01*
X50560714Y-21225000D02*
X50582142Y-21246428D01*
X50603571Y-21310714D01*
X50603571Y-21353571D01*
X50582142Y-21417857D01*
X50539285Y-21460714D01*
X50496428Y-21482142D01*
X50410714Y-21503571D01*
X50346428Y-21503571D01*
X50260714Y-21482142D01*
X50217857Y-21460714D01*
X50175000Y-21417857D01*
X50153571Y-21353571D01*
X50153571Y-21310714D01*
X50175000Y-21246428D01*
X50196428Y-21225000D01*
X50603571Y-20796428D02*
X50603571Y-21053571D01*
X50603571Y-20925000D02*
X50153571Y-20925000D01*
X50217857Y-20967857D01*
X50260714Y-21010714D01*
X50282142Y-21053571D01*
X47457142Y-31503571D02*
X47457142Y-31867857D01*
X47478571Y-31910714D01*
X47500000Y-31932142D01*
X47542857Y-31953571D01*
X47628571Y-31953571D01*
X47671428Y-31932142D01*
X47692857Y-31910714D01*
X47714285Y-31867857D01*
X47714285Y-31503571D01*
X47907142Y-31546428D02*
X47928571Y-31525000D01*
X47971428Y-31503571D01*
X48078571Y-31503571D01*
X48121428Y-31525000D01*
X48142857Y-31546428D01*
X48164285Y-31589285D01*
X48164285Y-31632142D01*
X48142857Y-31696428D01*
X47885714Y-31953571D01*
X48164285Y-31953571D01*
X55653571Y-21205000D02*
X55653571Y-21419285D01*
X55203571Y-21419285D01*
X55653571Y-20819285D02*
X55653571Y-21076428D01*
X55653571Y-20947857D02*
X55203571Y-20947857D01*
X55267857Y-20990714D01*
X55310714Y-21033571D01*
X55332142Y-21076428D01*
X45455714Y-21185000D02*
X45477142Y-21206428D01*
X45498571Y-21270714D01*
X45498571Y-21313571D01*
X45477142Y-21377857D01*
X45434285Y-21420714D01*
X45391428Y-21442142D01*
X45305714Y-21463571D01*
X45241428Y-21463571D01*
X45155714Y-21442142D01*
X45112857Y-21420714D01*
X45070000Y-21377857D01*
X45048571Y-21313571D01*
X45048571Y-21270714D01*
X45070000Y-21206428D01*
X45091428Y-21185000D01*
X45498571Y-20970714D02*
X45498571Y-20885000D01*
X45477142Y-20842142D01*
X45455714Y-20820714D01*
X45391428Y-20777857D01*
X45305714Y-20756428D01*
X45134285Y-20756428D01*
X45091428Y-20777857D01*
X45070000Y-20799285D01*
X45048571Y-20842142D01*
X45048571Y-20927857D01*
X45070000Y-20970714D01*
X45091428Y-20992142D01*
X45134285Y-21013571D01*
X45241428Y-21013571D01*
X45284285Y-20992142D01*
X45305714Y-20970714D01*
X45327142Y-20927857D01*
X45327142Y-20842142D01*
X45305714Y-20799285D01*
X45284285Y-20777857D01*
X45241428Y-20756428D01*
X55645714Y-32383571D02*
X55495714Y-32169285D01*
X55388571Y-32383571D02*
X55388571Y-31933571D01*
X55560000Y-31933571D01*
X55602857Y-31955000D01*
X55624285Y-31976428D01*
X55645714Y-32019285D01*
X55645714Y-32083571D01*
X55624285Y-32126428D01*
X55602857Y-32147857D01*
X55560000Y-32169285D01*
X55388571Y-32169285D01*
X56074285Y-32383571D02*
X55817142Y-32383571D01*
X55945714Y-32383571D02*
X55945714Y-31933571D01*
X55902857Y-31997857D01*
X55860000Y-32040714D01*
X55817142Y-32062142D01*
X56224285Y-31933571D02*
X56502857Y-31933571D01*
X56352857Y-32105000D01*
X56417142Y-32105000D01*
X56460000Y-32126428D01*
X56481428Y-32147857D01*
X56502857Y-32190714D01*
X56502857Y-32297857D01*
X56481428Y-32340714D01*
X56460000Y-32362142D01*
X56417142Y-32383571D01*
X56288571Y-32383571D01*
X56245714Y-32362142D01*
X56224285Y-32340714D01*
X49875000Y-32460714D02*
X49853571Y-32482142D01*
X49789285Y-32503571D01*
X49746428Y-32503571D01*
X49682142Y-32482142D01*
X49639285Y-32439285D01*
X49617857Y-32396428D01*
X49596428Y-32310714D01*
X49596428Y-32246428D01*
X49617857Y-32160714D01*
X49639285Y-32117857D01*
X49682142Y-32075000D01*
X49746428Y-32053571D01*
X49789285Y-32053571D01*
X49853571Y-32075000D01*
X49875000Y-32096428D01*
X50282142Y-32053571D02*
X50067857Y-32053571D01*
X50046428Y-32267857D01*
X50067857Y-32246428D01*
X50110714Y-32225000D01*
X50217857Y-32225000D01*
X50260714Y-32246428D01*
X50282142Y-32267857D01*
X50303571Y-32310714D01*
X50303571Y-32417857D01*
X50282142Y-32460714D01*
X50260714Y-32482142D01*
X50217857Y-32503571D01*
X50110714Y-32503571D01*
X50067857Y-32482142D01*
X50046428Y-32460714D01*
X52590714Y-30203571D02*
X52440714Y-29989285D01*
X52333571Y-30203571D02*
X52333571Y-29753571D01*
X52505000Y-29753571D01*
X52547857Y-29775000D01*
X52569285Y-29796428D01*
X52590714Y-29839285D01*
X52590714Y-29903571D01*
X52569285Y-29946428D01*
X52547857Y-29967857D01*
X52505000Y-29989285D01*
X52333571Y-29989285D01*
X53019285Y-30203571D02*
X52762142Y-30203571D01*
X52890714Y-30203571D02*
X52890714Y-29753571D01*
X52847857Y-29817857D01*
X52805000Y-29860714D01*
X52762142Y-29882142D01*
X53190714Y-29796428D02*
X53212142Y-29775000D01*
X53255000Y-29753571D01*
X53362142Y-29753571D01*
X53405000Y-29775000D01*
X53426428Y-29796428D01*
X53447857Y-29839285D01*
X53447857Y-29882142D01*
X53426428Y-29946428D01*
X53169285Y-30203571D01*
X53447857Y-30203571D01*
X54400714Y-31120714D02*
X54379285Y-31142142D01*
X54315000Y-31163571D01*
X54272142Y-31163571D01*
X54207857Y-31142142D01*
X54165000Y-31099285D01*
X54143571Y-31056428D01*
X54122142Y-30970714D01*
X54122142Y-30906428D01*
X54143571Y-30820714D01*
X54165000Y-30777857D01*
X54207857Y-30735000D01*
X54272142Y-30713571D01*
X54315000Y-30713571D01*
X54379285Y-30735000D01*
X54400714Y-30756428D01*
X54829285Y-31163571D02*
X54572142Y-31163571D01*
X54700714Y-31163571D02*
X54700714Y-30713571D01*
X54657857Y-30777857D01*
X54615000Y-30820714D01*
X54572142Y-30842142D01*
X55257857Y-31163571D02*
X55000714Y-31163571D01*
X55129285Y-31163571D02*
X55129285Y-30713571D01*
X55086428Y-30777857D01*
X55043571Y-30820714D01*
X55000714Y-30842142D01*
D15*
X60558333Y-20316190D02*
X60558333Y-20673333D01*
X60534523Y-20744761D01*
X60486904Y-20792380D01*
X60415476Y-20816190D01*
X60367857Y-20816190D01*
X61034523Y-20316190D02*
X60796428Y-20316190D01*
X60772619Y-20554285D01*
X60796428Y-20530476D01*
X60844047Y-20506666D01*
X60963095Y-20506666D01*
X61010714Y-20530476D01*
X61034523Y-20554285D01*
X61058333Y-20601904D01*
X61058333Y-20720952D01*
X61034523Y-20768571D01*
X61010714Y-20792380D01*
X60963095Y-20816190D01*
X60844047Y-20816190D01*
X60796428Y-20792380D01*
X60772619Y-20768571D01*
D11*
X51143333Y-31182857D02*
X51124285Y-31201904D01*
X51067142Y-31220952D01*
X51029047Y-31220952D01*
X50971904Y-31201904D01*
X50933809Y-31163809D01*
X50914761Y-31125714D01*
X50895714Y-31049523D01*
X50895714Y-30992380D01*
X50914761Y-30916190D01*
X50933809Y-30878095D01*
X50971904Y-30840000D01*
X51029047Y-30820952D01*
X51067142Y-30820952D01*
X51124285Y-30840000D01*
X51143333Y-30859047D01*
X51295714Y-30859047D02*
X51314761Y-30840000D01*
X51352857Y-30820952D01*
X51448095Y-30820952D01*
X51486190Y-30840000D01*
X51505238Y-30859047D01*
X51524285Y-30897142D01*
X51524285Y-30935238D01*
X51505238Y-30992380D01*
X51276666Y-31220952D01*
X51524285Y-31220952D01*
D14*
X48259416Y-26379797D02*
X48229112Y-26379797D01*
X48168503Y-26349492D01*
X48138198Y-26319188D01*
X48107894Y-26258578D01*
X48107894Y-26197969D01*
X48123046Y-26152512D01*
X48168503Y-26076751D01*
X48213960Y-26031294D01*
X48289721Y-25985837D01*
X48335178Y-25970685D01*
X48395787Y-25970685D01*
X48456396Y-26000990D01*
X48486701Y-26031294D01*
X48517005Y-26091903D01*
X48517005Y-26122208D01*
X48532158Y-26713147D02*
X48350330Y-26531320D01*
X48441244Y-26622233D02*
X48759442Y-26304035D01*
X48683681Y-26319188D01*
X48623071Y-26319188D01*
X48577615Y-26304035D01*
X48941269Y-26546472D02*
X48971574Y-26546472D01*
X49017031Y-26561624D01*
X49092792Y-26637386D01*
X49107945Y-26682843D01*
X49107945Y-26713147D01*
X49092792Y-26758604D01*
X49062488Y-26788909D01*
X49001879Y-26819213D01*
X48638224Y-26819213D01*
X48835203Y-27016193D01*
X48074433Y-21539996D02*
X47860147Y-21689996D01*
X48074433Y-21797139D02*
X47624433Y-21797139D01*
X47624433Y-21625711D01*
X47645862Y-21582853D01*
X47667290Y-21561425D01*
X47710147Y-21539996D01*
X47774433Y-21539996D01*
X47817290Y-21561425D01*
X47838719Y-21582853D01*
X47860147Y-21625711D01*
X47860147Y-21797139D01*
X48074433Y-21111425D02*
X48074433Y-21368568D01*
X48074433Y-21239996D02*
X47624433Y-21239996D01*
X47688719Y-21282853D01*
X47731576Y-21325711D01*
X47753004Y-21368568D01*
X47774433Y-20725711D02*
X48074433Y-20725711D01*
X47603004Y-20832853D02*
X47924433Y-20939996D01*
X47924433Y-20661425D01*
X48966497Y-24319390D02*
X49011954Y-24061801D01*
X48784669Y-24137563D02*
X49102867Y-23819365D01*
X49224086Y-23940583D01*
X49239238Y-23986040D01*
X49239238Y-24016345D01*
X49224086Y-24061801D01*
X49178629Y-24107258D01*
X49133172Y-24122411D01*
X49102867Y-24122411D01*
X49057411Y-24107258D01*
X48936192Y-23986040D01*
X49269543Y-24622436D02*
X49087715Y-24440609D01*
X49178629Y-24531522D02*
X49496827Y-24213324D01*
X49421066Y-24228477D01*
X49360456Y-24228477D01*
X49315000Y-24213324D01*
X49875634Y-24592132D02*
X49724111Y-24440609D01*
X49557436Y-24576979D01*
X49587741Y-24576979D01*
X49633198Y-24592132D01*
X49708959Y-24667893D01*
X49724111Y-24713350D01*
X49724111Y-24743654D01*
X49708959Y-24789111D01*
X49633198Y-24864873D01*
X49587741Y-24880025D01*
X49557436Y-24880025D01*
X49511979Y-24864873D01*
X49436218Y-24789111D01*
X49421066Y-24743654D01*
X49421066Y-24713350D01*
X32260714Y-24813571D02*
X32110714Y-24599285D01*
X32003571Y-24813571D02*
X32003571Y-24363571D01*
X32175000Y-24363571D01*
X32217857Y-24385000D01*
X32239285Y-24406428D01*
X32260714Y-24449285D01*
X32260714Y-24513571D01*
X32239285Y-24556428D01*
X32217857Y-24577857D01*
X32175000Y-24599285D01*
X32003571Y-24599285D01*
X32689285Y-24813571D02*
X32432142Y-24813571D01*
X32560714Y-24813571D02*
X32560714Y-24363571D01*
X32517857Y-24427857D01*
X32475000Y-24470714D01*
X32432142Y-24492142D01*
X33075000Y-24363571D02*
X32989285Y-24363571D01*
X32946428Y-24385000D01*
X32925000Y-24406428D01*
X32882142Y-24470714D01*
X32860714Y-24556428D01*
X32860714Y-24727857D01*
X32882142Y-24770714D01*
X32903571Y-24792142D01*
X32946428Y-24813571D01*
X33032142Y-24813571D01*
X33075000Y-24792142D01*
X33096428Y-24770714D01*
X33117857Y-24727857D01*
X33117857Y-24620714D01*
X33096428Y-24577857D01*
X33075000Y-24556428D01*
X33032142Y-24535000D01*
X32946428Y-24535000D01*
X32903571Y-24556428D01*
X32882142Y-24577857D01*
X32860714Y-24620714D01*
D11*
X62892857Y-34950000D02*
X62921428Y-34864285D01*
X62921428Y-34721428D01*
X62892857Y-34664285D01*
X62864285Y-34635714D01*
X62807142Y-34607142D01*
X62750000Y-34607142D01*
X62692857Y-34635714D01*
X62664285Y-34664285D01*
X62635714Y-34721428D01*
X62607142Y-34835714D01*
X62578571Y-34892857D01*
X62550000Y-34921428D01*
X62492857Y-34950000D01*
X62435714Y-34950000D01*
X62378571Y-34921428D01*
X62350000Y-34892857D01*
X62321428Y-34835714D01*
X62321428Y-34692857D01*
X62350000Y-34607142D01*
X62321428Y-34407142D02*
X62921428Y-34264285D01*
X62492857Y-34150000D01*
X62921428Y-34035714D01*
X62321428Y-33892857D01*
X62378571Y-33692857D02*
X62350000Y-33664285D01*
X62321428Y-33607142D01*
X62321428Y-33464285D01*
X62350000Y-33407142D01*
X62378571Y-33378571D01*
X62435714Y-33350000D01*
X62492857Y-33350000D01*
X62578571Y-33378571D01*
X62921428Y-33721428D01*
X62921428Y-33350000D01*
D15*
X60033333Y-23056190D02*
X60033333Y-23413333D01*
X60009523Y-23484761D01*
X59961904Y-23532380D01*
X59890476Y-23556190D01*
X59842857Y-23556190D01*
X60342857Y-23270476D02*
X60295238Y-23246666D01*
X60271428Y-23222857D01*
X60247619Y-23175238D01*
X60247619Y-23151428D01*
X60271428Y-23103809D01*
X60295238Y-23080000D01*
X60342857Y-23056190D01*
X60438095Y-23056190D01*
X60485714Y-23080000D01*
X60509523Y-23103809D01*
X60533333Y-23151428D01*
X60533333Y-23175238D01*
X60509523Y-23222857D01*
X60485714Y-23246666D01*
X60438095Y-23270476D01*
X60342857Y-23270476D01*
X60295238Y-23294285D01*
X60271428Y-23318095D01*
X60247619Y-23365714D01*
X60247619Y-23460952D01*
X60271428Y-23508571D01*
X60295238Y-23532380D01*
X60342857Y-23556190D01*
X60438095Y-23556190D01*
X60485714Y-23532380D01*
X60509523Y-23508571D01*
X60533333Y-23460952D01*
X60533333Y-23365714D01*
X60509523Y-23318095D01*
X60485714Y-23294285D01*
X60438095Y-23270476D01*
D13*
X27700000Y-24335000D02*
X29985000Y-24335000D01*
X29985000Y-24335000D02*
X29985000Y-22865000D01*
X29985000Y-22865000D02*
X27700000Y-22865000D01*
X29985000Y-34335000D02*
X29985000Y-32865000D01*
X27700000Y-34335000D02*
X29985000Y-34335000D01*
X29985000Y-32865000D02*
X27700000Y-32865000D01*
D12*
X20369999Y-33070000D02*
X18674999Y-33070000D01*
X24369999Y-24070000D02*
X22369999Y-24070000D01*
X18674999Y-33070000D02*
X18674999Y-24070000D01*
X26869999Y-24070000D02*
X26869999Y-24570000D01*
X26869999Y-32570000D02*
X26869999Y-33070000D01*
X18674999Y-24070000D02*
X20369999Y-24070000D01*
X22369999Y-33070000D02*
X24369999Y-33070000D01*
D13*
X28800000Y-30110000D02*
X31250000Y-30110000D01*
X30600000Y-26890000D02*
X28800000Y-26890000D01*
X35360000Y-27365000D02*
X35360000Y-27140000D01*
X35360000Y-29860000D02*
X34885000Y-29860000D01*
X32640000Y-27140000D02*
X33115000Y-27140000D01*
X32640000Y-27365000D02*
X32640000Y-27140000D01*
X35360000Y-29635000D02*
X35360000Y-29860000D01*
X32640000Y-29635000D02*
X32640000Y-29860000D01*
X35360000Y-27140000D02*
X34885000Y-27140000D01*
X52870000Y-24870000D02*
X50420000Y-24870000D01*
X51070000Y-28090000D02*
X52870000Y-28090000D01*
X55790000Y-28701422D02*
X55790000Y-29218578D01*
X57210000Y-28701422D02*
X57210000Y-29218578D01*
X51838578Y-24600000D02*
X51321422Y-24600000D01*
X51838578Y-23180000D02*
X51321422Y-23180000D01*
X42700000Y-33695260D02*
X42381802Y-33377062D01*
X47487113Y-28271751D02*
X48399281Y-27359583D01*
X37912887Y-28271751D02*
X37594689Y-28589949D01*
X37594689Y-28589949D02*
X37912887Y-28908147D01*
X42381802Y-23802836D02*
X42700000Y-23484638D01*
X43018198Y-33377062D02*
X42700000Y-33695260D01*
X42700000Y-23484638D02*
X43018198Y-23802836D01*
X47487113Y-28908147D02*
X47805311Y-28589949D01*
X47805311Y-28589949D02*
X47487113Y-28271751D01*
X54460000Y-24497936D02*
X54460000Y-25702064D01*
X57180000Y-24497936D02*
X57180000Y-25702064D01*
X22750000Y-36670000D02*
X21420000Y-36670000D01*
X22750000Y-34070000D02*
X22750000Y-34010000D01*
X22750000Y-35340000D02*
X22750000Y-36670000D01*
X22750000Y-34010000D02*
X20090000Y-34010000D01*
X22750000Y-34070000D02*
X20090000Y-34070000D01*
X20090000Y-34070000D02*
X20090000Y-34010000D01*
X22750000Y-23050000D02*
X22750000Y-23110000D01*
X20090000Y-23110000D02*
X22750000Y-23110000D01*
X20090000Y-23050000D02*
X22750000Y-23050000D01*
X20090000Y-23050000D02*
X20090000Y-23110000D01*
X20090000Y-20450000D02*
X21420000Y-20450000D01*
X20090000Y-21780000D02*
X20090000Y-20450000D01*
X55400000Y-28691422D02*
X55400000Y-29208578D01*
X53980000Y-28691422D02*
X53980000Y-29208578D01*
X62782929Y-30310000D02*
X63180000Y-30310000D01*
X71840000Y-27010000D02*
X71840000Y-27770000D01*
X65840000Y-31260000D02*
X65840000Y-20980000D01*
X62782929Y-29550000D02*
X63180000Y-29550000D01*
X62782929Y-27010000D02*
X63180000Y-27010000D01*
X65840000Y-21930000D02*
X71840000Y-21930000D01*
X62850000Y-22690000D02*
X63180000Y-22690000D01*
X65840000Y-20980000D02*
X63180000Y-20980000D01*
X65840000Y-24470000D02*
X71840000Y-24470000D01*
X71840000Y-21930000D02*
X71840000Y-22690000D01*
X63180000Y-31260000D02*
X65840000Y-31260000D01*
X71840000Y-29550000D02*
X71840000Y-30310000D01*
X63180000Y-20980000D02*
X63180000Y-31260000D01*
X65840000Y-29550000D02*
X71840000Y-29550000D01*
X65840000Y-22470000D02*
X71840000Y-22470000D01*
X60470000Y-22310000D02*
X60470000Y-21040000D01*
X65840000Y-27010000D02*
X71840000Y-27010000D01*
X71840000Y-22690000D02*
X65840000Y-22690000D01*
X62782929Y-27770000D02*
X63180000Y-27770000D01*
X71840000Y-25230000D02*
X65840000Y-25230000D01*
X65840000Y-22230000D02*
X71840000Y-22230000D01*
X65840000Y-22350000D02*
X71840000Y-22350000D01*
X71840000Y-27770000D02*
X65840000Y-27770000D01*
X65840000Y-21990000D02*
X71840000Y-21990000D01*
X63180000Y-26120000D02*
X65840000Y-26120000D01*
X65840000Y-22590000D02*
X71840000Y-22590000D01*
X63180000Y-28660000D02*
X65840000Y-28660000D01*
X71840000Y-30310000D02*
X65840000Y-30310000D01*
X62782929Y-25230000D02*
X63180000Y-25230000D01*
X62782929Y-24470000D02*
X63180000Y-24470000D01*
X63180000Y-23580000D02*
X65840000Y-23580000D01*
X62850000Y-21930000D02*
X63180000Y-21930000D01*
X71840000Y-24470000D02*
X71840000Y-25230000D01*
X65840000Y-22110000D02*
X71840000Y-22110000D01*
X60470000Y-21040000D02*
X61740000Y-21040000D01*
X51690000Y-29177221D02*
X51690000Y-29502779D01*
X50670000Y-29177221D02*
X50670000Y-29502779D01*
X34287221Y-24470000D02*
X34612779Y-24470000D01*
X34287221Y-23450000D02*
X34612779Y-23450000D01*
X64250000Y-32350000D02*
X64250000Y-35850000D01*
X64250000Y-33150000D02*
X64900000Y-33150000D01*
X61150000Y-35850000D02*
X61150000Y-32350000D01*
X64900000Y-33150000D02*
X64900000Y-35050000D01*
X64900000Y-35050000D02*
X64250000Y-35050000D01*
X57870000Y-24850000D02*
X57870000Y-23520000D01*
X57870000Y-23520000D02*
X59200000Y-23520000D01*
M02*
