%TF.GenerationSoftware,KiCad,Pcbnew,(5.99.0-7355-g8781ce7efb)*%
%TF.CreationDate,2021-01-22T11:19:25+01:00*%
%TF.ProjectId,FoxPill,466f7850-696c-46c2-9e6b-696361645f70,rev?*%
%TF.SameCoordinates,Original*%
%TF.FileFunction,Paste,Top*%
%TF.FilePolarity,Positive*%
%FSLAX46Y46*%
G04 Gerber Fmt 4.6, Leading zero omitted, Abs format (unit mm)*
G04 Created by KiCad (PCBNEW (5.99.0-7355-g8781ce7efb)) date 2021-01-22 11:19:25*
%MOMM*%
%LPD*%
G01*
G04 APERTURE LIST*
G04 Aperture macros list*
%AMRoundRect*
0 Rectangle with rounded corners*
0 $1 Rounding radius*
0 $2 $3 $4 $5 $6 $7 $8 $9 X,Y pos of 4 corners*
0 Add a 4 corners polygon primitive as box body*
4,1,4,$2,$3,$4,$5,$6,$7,$8,$9,$2,$3,0*
0 Add four circle primitives for the rounded corners*
1,1,$1+$1,$2,$3,0*
1,1,$1+$1,$4,$5,0*
1,1,$1+$1,$6,$7,0*
1,1,$1+$1,$8,$9,0*
0 Add four rect primitives between the rounded corners*
20,1,$1+$1,$2,$3,$4,$5,0*
20,1,$1+$1,$4,$5,$6,$7,0*
20,1,$1+$1,$6,$7,$8,$9,0*
20,1,$1+$1,$8,$9,$2,$3,0*%
G04 Aperture macros list end*
%ADD10C,0.100000*%
%ADD11RoundRect,0.218750X0.218750X0.256250X-0.218750X0.256250X-0.218750X-0.256250X0.218750X-0.256250X0*%
%ADD12R,1.450000X0.600000*%
%ADD13R,1.450000X0.300000*%
%ADD14RoundRect,0.147500X0.147500X0.172500X-0.147500X0.172500X-0.147500X-0.172500X0.147500X-0.172500X0*%
%ADD15RoundRect,0.147500X-0.147500X-0.172500X0.147500X-0.172500X0.147500X0.172500X-0.147500X0.172500X0*%
%ADD16R,1.060000X0.650000*%
%ADD17RoundRect,0.147500X0.172500X-0.147500X0.172500X0.147500X-0.172500X0.147500X-0.172500X-0.147500X0*%
%ADD18RoundRect,0.145000X0.145000X-0.145000X0.145000X0.145000X-0.145000X0.145000X-0.145000X-0.145000X0*%
%ADD19RoundRect,0.062500X0.062500X-0.275000X0.062500X0.275000X-0.062500X0.275000X-0.062500X-0.275000X0*%
%ADD20RoundRect,0.062500X0.275000X-0.062500X0.275000X0.062500X-0.275000X0.062500X-0.275000X-0.062500X0*%
%ADD21RoundRect,0.147500X-0.172500X0.147500X-0.172500X-0.147500X0.172500X-0.147500X0.172500X0.147500X0*%
%ADD22RoundRect,0.243750X-0.456250X0.243750X-0.456250X-0.243750X0.456250X-0.243750X0.456250X0.243750X0*%
%ADD23RoundRect,0.243750X0.243750X0.456250X-0.243750X0.456250X-0.243750X-0.456250X0.243750X-0.456250X0*%
%ADD24RoundRect,0.075000X0.415425X0.521491X-0.521491X-0.415425X-0.415425X-0.521491X0.521491X0.415425X0*%
%ADD25RoundRect,0.075000X-0.415425X0.521491X-0.521491X0.415425X0.415425X-0.521491X0.521491X-0.415425X0*%
%ADD26RoundRect,0.250000X-1.075000X0.375000X-1.075000X-0.375000X1.075000X-0.375000X1.075000X0.375000X0*%
%ADD27RoundRect,0.147500X-0.226274X-0.017678X-0.017678X-0.226274X0.226274X0.017678X0.017678X0.226274X0*%
%ADD28RoundRect,0.218750X-0.256250X0.218750X-0.256250X-0.218750X0.256250X-0.218750X0.256250X0.218750X0*%
%ADD29RoundRect,0.147500X0.226274X0.017678X0.017678X0.226274X-0.226274X-0.017678X-0.017678X-0.226274X0*%
%ADD30RoundRect,0.218750X-0.218750X-0.256250X0.218750X-0.256250X0.218750X0.256250X-0.218750X0.256250X0*%
%ADD31R,1.050000X1.400000*%
G04 APERTURE END LIST*
D10*
X24069999Y-24270000D02*
X24069999Y-23570000D01*
X24069999Y-23570000D02*
X26869999Y-23570000D01*
X26869999Y-23570000D02*
X26869999Y-24270000D01*
X26869999Y-24270000D02*
X24069999Y-24270000D01*
G36*
X26869999Y-24270000D02*
G01*
X24069999Y-24270000D01*
X24069999Y-23570000D01*
X26869999Y-23570000D01*
X26869999Y-24270000D01*
G37*
X26869999Y-24270000D02*
X24069999Y-24270000D01*
X24069999Y-23570000D01*
X26869999Y-23570000D01*
X26869999Y-24270000D01*
X24057766Y-33580444D02*
X24057766Y-32880444D01*
X24057766Y-32880444D02*
X26857766Y-32880444D01*
X26857766Y-32880444D02*
X26857766Y-33580444D01*
X26857766Y-33580444D02*
X24057766Y-33580444D01*
G36*
X26857766Y-33580444D02*
G01*
X24057766Y-33580444D01*
X24057766Y-32880444D01*
X26857766Y-32880444D01*
X26857766Y-33580444D01*
G37*
X26857766Y-33580444D02*
X24057766Y-33580444D01*
X24057766Y-32880444D01*
X26857766Y-32880444D01*
X26857766Y-33580444D01*
X20169999Y-33720000D02*
X20153391Y-32986669D01*
X20153391Y-32986669D02*
X22469999Y-32986669D01*
X22469999Y-32986669D02*
X22469999Y-33720000D01*
X22469999Y-33720000D02*
X20169999Y-33720000D01*
G36*
X22469999Y-33720000D02*
G01*
X20169999Y-33720000D01*
X20153391Y-32986669D01*
X22469999Y-32986669D01*
X22469999Y-33720000D01*
G37*
X22469999Y-33720000D02*
X20169999Y-33720000D01*
X20153391Y-32986669D01*
X22469999Y-32986669D01*
X22469999Y-33720000D01*
X20169999Y-24130444D02*
X20169999Y-23370000D01*
X20169999Y-23370000D02*
X22469999Y-23370000D01*
X22469999Y-23370000D02*
X22469999Y-24130444D01*
X22469999Y-24130444D02*
X20169999Y-24130444D01*
G36*
X22469999Y-24130444D02*
G01*
X20169999Y-24130444D01*
X20169999Y-23370000D01*
X22469999Y-23370000D01*
X22469999Y-24130444D01*
G37*
X22469999Y-24130444D02*
X20169999Y-24130444D01*
X20169999Y-23370000D01*
X22469999Y-23370000D01*
X22469999Y-24130444D01*
X51490000Y-25855000D02*
X50240000Y-25855000D01*
X50240000Y-25855000D02*
X50240000Y-25005000D01*
X50240000Y-25005000D02*
X51490000Y-25005000D01*
X51490000Y-25005000D02*
X51490000Y-25855000D01*
G36*
X51490000Y-25855000D02*
G01*
X50240000Y-25855000D01*
X50240000Y-25005000D01*
X51490000Y-25005000D01*
X51490000Y-25855000D01*
G37*
X51490000Y-25855000D02*
X50240000Y-25855000D01*
X50240000Y-25005000D01*
X51490000Y-25005000D01*
X51490000Y-25855000D01*
D11*
X29287500Y-23600000D03*
X27712500Y-23600000D03*
X29287500Y-33600000D03*
X27712500Y-33600000D03*
D12*
X26369999Y-25370000D03*
X26369999Y-26170000D03*
D13*
X26369999Y-27320000D03*
X26369999Y-28320000D03*
X26369999Y-28820000D03*
X26369999Y-29820000D03*
D12*
X26369999Y-31770000D03*
X26369999Y-30970000D03*
D13*
X26369999Y-30320000D03*
X26369999Y-29320000D03*
X26369999Y-27820000D03*
X26369999Y-26820000D03*
D14*
X29485000Y-31000000D03*
X28515000Y-31000000D03*
X29685000Y-26000000D03*
X28715000Y-26000000D03*
D15*
X28715000Y-24900000D03*
X29685000Y-24900000D03*
X28515000Y-32200000D03*
X29485000Y-32200000D03*
D16*
X30800000Y-29450000D03*
X30800000Y-28500000D03*
X30800000Y-27550000D03*
X28600000Y-27550000D03*
X28600000Y-28500000D03*
X28600000Y-29450000D03*
D15*
X31115000Y-26000000D03*
X32085000Y-26000000D03*
D17*
X32100000Y-31785000D03*
X32100000Y-30815000D03*
D18*
X34360000Y-28860000D03*
X34360000Y-28140000D03*
X33640000Y-28140000D03*
X33640000Y-28860000D03*
D19*
X33500000Y-29762500D03*
X34000000Y-29762500D03*
X34500000Y-29762500D03*
D20*
X35262500Y-29250000D03*
X35262500Y-28750000D03*
X35262500Y-28250000D03*
X35262500Y-27750000D03*
D19*
X34500000Y-27237500D03*
X34000000Y-27237500D03*
X33500000Y-27237500D03*
D20*
X32737500Y-27750000D03*
X32737500Y-28250000D03*
X32737500Y-28750000D03*
X32737500Y-29250000D03*
D21*
X48920000Y-29770000D03*
X48920000Y-30740000D03*
X36470000Y-27215000D03*
X36470000Y-28185000D03*
X34500000Y-30815000D03*
X34500000Y-31785000D03*
X33400000Y-30815000D03*
X33400000Y-31785000D03*
D17*
X35690000Y-26255001D03*
X35690000Y-25285001D03*
X36690000Y-26255001D03*
X36690000Y-25285001D03*
X49930000Y-29475000D03*
X49930000Y-28505000D03*
D21*
X53720000Y-23385000D03*
X53720000Y-24355000D03*
D16*
X50870000Y-25530000D03*
X50870000Y-26480000D03*
X50870000Y-27430000D03*
X53070000Y-27430000D03*
X53070000Y-26480000D03*
X53070000Y-25530000D03*
D21*
X54700000Y-32990000D03*
X54700000Y-33960000D03*
D17*
X49600000Y-27570000D03*
X49600000Y-26600000D03*
D22*
X56500000Y-28022500D03*
X56500000Y-29897500D03*
D23*
X52517500Y-23890000D03*
X50642500Y-23890000D03*
D24*
X47587876Y-27591161D03*
X47234322Y-27237607D03*
X46880769Y-26884054D03*
X46527215Y-26530500D03*
X46173662Y-26176947D03*
X45820109Y-25823394D03*
X45466555Y-25469840D03*
X45113002Y-25116287D03*
X44759449Y-24762734D03*
X44405895Y-24409180D03*
X44052342Y-24055627D03*
X43698788Y-23702073D03*
D25*
X41701212Y-23702073D03*
X41347658Y-24055627D03*
X40994105Y-24409180D03*
X40640551Y-24762734D03*
X40286998Y-25116287D03*
X39933445Y-25469840D03*
X39579891Y-25823394D03*
X39226338Y-26176947D03*
X38872785Y-26530500D03*
X38519231Y-26884054D03*
X38165678Y-27237607D03*
X37812124Y-27591161D03*
D24*
X37812124Y-29588737D03*
X38165678Y-29942291D03*
X38519231Y-30295844D03*
X38872785Y-30649398D03*
X39226338Y-31002951D03*
X39579891Y-31356504D03*
X39933445Y-31710058D03*
X40286998Y-32063611D03*
X40640551Y-32417164D03*
X40994105Y-32770718D03*
X41347658Y-33124271D03*
X41701212Y-33477825D03*
D25*
X43698788Y-33477825D03*
X44052342Y-33124271D03*
X44405895Y-32770718D03*
X44759449Y-32417164D03*
X45113002Y-32063611D03*
X45466555Y-31710058D03*
X45820109Y-31356504D03*
X46173662Y-31002951D03*
X46527215Y-30649398D03*
X46880769Y-30295844D03*
X47234322Y-29942291D03*
X47587876Y-29588737D03*
D26*
X55820000Y-23700000D03*
X55820000Y-26500000D03*
D27*
X45747053Y-23652053D03*
X46432947Y-24337947D03*
D17*
X55930000Y-33950000D03*
X55930000Y-32980000D03*
D21*
X49930000Y-30515000D03*
X49930000Y-31485000D03*
D15*
X52315000Y-28750000D03*
X53285000Y-28750000D03*
D22*
X54690000Y-28012500D03*
X54690000Y-29887500D03*
D28*
X51180000Y-28552500D03*
X51180000Y-30127500D03*
D29*
X47832947Y-25742947D03*
X47147053Y-25057053D03*
D14*
X48265000Y-23530000D03*
X47295000Y-23530000D03*
D27*
X48422053Y-24587053D03*
X49107947Y-25272947D03*
D30*
X33662500Y-23960000D03*
X35237500Y-23960000D03*
D31*
X61980000Y-35900000D03*
X61980000Y-32300000D03*
X63420000Y-32300000D03*
X63420000Y-35900000D03*
M02*
