M48
; DRILL file {KiCad (5.99.0-7355-g8781ce7efb)} date 01/22/21 11:19:29
; FORMAT={-:-/ absolute / inch / decimal}
; #@! TF.CreationDate,2021-01-22T11:19:29+01:00
; #@! TF.GenerationSoftware,Kicad,Pcbnew,(5.99.0-7355-g8781ce7efb)
; #@! TF.FileFunction,Plated,1,2,PTH
FMAT,2
INCH
T1C0.0118
T2C0.0157
T3C0.0276
T4C0.0394
%
G90
G05
T1
X0.9567Y-1.1949
X0.9571Y-1.0555
X0.9713Y-1.1654
X0.9724Y-1.0807
X0.9724Y-1.124
X0.9862Y-1.0551
X0.9862Y-1.1952
X0.9862Y-1.4479
X0.987Y-0.8024
X1.0831Y-0.8039
X1.0835Y-1.4484
X1.0906Y-1.2165
X1.0943Y-1.0164
X1.1552Y-1.122
X1.1606Y-1.2429
X1.1722Y-1.1575
X1.1732Y-1.0856
X1.1827Y-0.8035
X1.1831Y-1.4488
X1.1913Y-0.9528
X1.1926Y-1.018
X1.1941Y-1.1996
X1.2126Y-1.2323
X1.2169Y-0.8972
X1.2409Y-1.3409
X1.2507Y-1.122
X1.2606Y-0.9437
X1.2815Y-0.876
X1.2823Y-0.8028
X1.2827Y-1.45
X1.2843Y-0.9437
X1.2874Y-1.0551
X1.2913Y-1.2756
X1.2929Y-1.1925
X1.3098Y-1.0355
X1.3232Y-0.9827
X1.3315Y-1.0118
X1.3488Y-0.9835
X1.3583Y-1.0374
X1.3614Y-1.0118
X1.374Y-0.9835
X1.3826Y-1.0749
X1.3846Y-0.8031
X1.3878Y-1.2362
X1.4179Y-1.1379
X1.4218Y-1.3279
X1.4456Y-1.3059
X1.45Y-1.2012
X1.4606Y-1.1053
X1.4709Y-1.261
X1.4744Y-1.0183
X1.4839Y-0.8024
X1.4856Y-0.9573
X1.4917Y-0.9185
X1.5006Y-1.2634
X1.502Y-0.9736
X1.5425Y-1.1026
X1.561Y-1.0876
X1.5803Y-1.3283
X1.5827Y-0.8031
X1.5839Y-1.4492
X1.599Y-1.3423
X1.6001Y-1.0523
X1.6066Y-1.0936
X1.6092Y-1.2219
X1.6161Y-1.1909
X1.6373Y-1.2121
X1.638Y-1.0402
X1.6604Y-1.0209
X1.6657Y-1.346
X1.6823Y-0.8713
X1.6827Y-0.8039
X1.6839Y-1.4492
X1.6964Y-1.3456
X1.7007Y-1.252
X1.7094Y-1.0394
X1.7279Y-1.2398
X1.7303Y-1.0209
X1.7572Y-1.2052
X1.7584Y-1.1207
X1.7803Y-1.1005
X1.7827Y-0.8039
X1.7843Y-1.3898
X1.8102Y-1.1005
X1.8518Y-1.2533
X1.8751Y-1.291
X1.8819Y-0.8035
X1.8819Y-1.4488
X1.8867Y-1.2243
X1.9169Y-1.2374
X1.9173Y-1.0197
X1.9175Y-0.8996
X1.9327Y-1.113
X1.9331Y-1.1378
X1.9341Y-1.335
X1.937Y-0.9296
X1.9374Y-1.248
X1.9536Y-0.913
X1.9619Y-1.3348
X1.9626Y-1.0197
X1.9643Y-0.9873
X1.9803Y-1.4469
X1.9843Y-0.8055
X1.9843Y-1.3484
X1.997Y-1.1585
X2.0028Y-1.0051
X2.0177Y-0.9724
X2.0256Y-0.9425
X2.0276Y-1.2377
X2.0293Y-1.1596
X2.0591Y-1.3331
X2.0596Y-1.1626
X2.0787Y-1.3484
X2.0819Y-0.8043
X2.0827Y-1.4488
X2.0945Y-0.8976
X2.1083Y-1.1634
X2.1209Y-1.3028
X2.1524Y-1.1407
X2.1823Y-0.8028
X2.1839Y-1.4496
X2.1898Y-1.1402
X2.2244Y-1.1411
X2.2539Y-1.3413
X2.2799Y-0.9157
X2.2815Y-1.4492
X2.2823Y-0.8012
X2.3441Y-0.9174
X2.3862Y-1.4472
X2.4283Y-0.8087
X2.4677Y-0.8087
T2
X2.4665Y-1.128
T4
X0.8433Y-0.8575
X0.8433Y-1.3913
X0.9331Y-0.8307
X0.9331Y-1.4213
X1.0331Y-0.8307
X1.0331Y-1.4213
X1.1331Y-0.8307
X1.1331Y-1.4213
X1.2331Y-0.8307
X1.2331Y-1.4213
X1.3331Y-0.8307
X1.3331Y-1.4213
X1.4331Y-0.8307
X1.4331Y-1.4213
X1.5331Y-0.8307
X1.5331Y-1.4213
X1.6331Y-0.8307
X1.6331Y-1.4213
X1.7331Y-0.8307
X1.7331Y-1.4213
X1.8331Y-0.8307
X1.8331Y-1.4213
X1.9331Y-0.8307
X1.9331Y-1.4213
X2.0331Y-0.8307
X2.0331Y-1.4213
X2.1331Y-0.8307
X2.1331Y-1.4213
X2.2331Y-0.8307
X2.2331Y-1.4213
X2.3307Y-0.9783
X2.3307Y-1.0783
X2.3307Y-1.1783
X2.3307Y-1.2783
X2.3331Y-0.8307
X2.3331Y-1.4213
X2.4307Y-0.8783
X2.4307Y-0.9783
X2.4307Y-1.0783
X2.4307Y-1.1783
T3
G00X0.8455Y-0.9547
M15
G01X0.8297Y-0.9547
M16
G05
G00X0.8455Y-1.2949
M15
G01X0.8297Y-1.2949
M16
G05
G00X1.0219Y-0.9547
M15
G01X0.9825Y-0.9547
M16
G05
G00X1.0219Y-1.2949
M15
G01X0.9825Y-1.2949
M16
G05
T0
M30
