<?xml version="1.0" encoding="UTF-8" standalone="no"?>
<!-- Created with Inkscape (http://www.inkscape.org/) -->

<svg
   xmlns:dc="http://purl.org/dc/elements/1.1/"
   xmlns:cc="http://creativecommons.org/ns#"
   xmlns:rdf="http://www.w3.org/1999/02/22-rdf-syntax-ns#"
   xmlns:svg="http://www.w3.org/2000/svg"
   xmlns="http://www.w3.org/2000/svg"
   xmlns:sodipodi="http://sodipodi.sourceforge.net/DTD/sodipodi-0.dtd"
   xmlns:inkscape="http://www.inkscape.org/namespaces/inkscape"
   width="217.05962mm"
   height="152.18562mm"
   viewBox="0 0 217.05962 152.18562"
   version="1.1"
   id="svg4605"
   sodipodi:docname="MicroPythonFox.svg"
   inkscape:export-filename="C:\Users\Admin\Desktop\MicroPythonFox.png"
   inkscape:export-xdpi="96"
   inkscape:export-ydpi="96"
   inkscape:version="0.92.5 (2060ec1f9f, 2020-04-08)">
  <defs
     id="defs4599" />
  <sodipodi:namedview
     id="base"
     pagecolor="#ffffff"
     bordercolor="#666666"
     borderopacity="1.0"
     inkscape:pageopacity="0.0"
     inkscape:pageshadow="2"
     inkscape:zoom="0.45888787"
     inkscape:cx="413.4006"
     inkscape:cy="285.75919"
     inkscape:document-units="mm"
     inkscape:current-layer="layer1"
     showgrid="false"
     fit-margin-top="0"
     fit-margin-left="0"
     fit-margin-right="0"
     fit-margin-bottom="0"
     inkscape:window-width="1600"
     inkscape:window-height="825"
     inkscape:window-x="-9"
     inkscape:window-y="291"
     inkscape:window-maximized="1" />
  <metadata
     id="metadata4602">
    <rdf:RDF>
      <cc:Work
         rdf:about="">
        <dc:format>image/svg+xml</dc:format>
        <dc:type
           rdf:resource="http://purl.org/dc/dcmitype/StillImage" />
        <dc:title></dc:title>
      </cc:Work>
    </rdf:RDF>
  </metadata>
  <g
     inkscape:label="Layer 1"
     inkscape:groupmode="layer"
     id="layer1"
     transform="translate(-5.041868,-13.699322)">
    <rect
       style="opacity:1;fill:#ffffff;fill-opacity:1;fill-rule:evenodd;stroke:none;stroke-width:2;stroke-linejoin:round;stroke-miterlimit:4;stroke-dasharray:none;stroke-dashoffset:0;stroke-opacity:1"
       id="rect5773"
       width="236.92923"
       height="172.4845"
       x="-235.52663"
       y="-178.39482"
       transform="scale(-1)" />
    <path
       style="fill:#000000;stroke-width:0.26458335"
       d="m 129.89418,165.72091 c -2.8474,-0.21547 -3.96361,-0.67105 -5.78718,-2.36201 -1.42477,-1.32116 -1.78336,-1.99477 -2.32154,-4.36097 -0.52957,-2.32834 -0.35406,-4.35704 0.533,-6.16089 0.77122,-1.56829 2.03261,-2.70072 4.24455,-3.81061 1.30229,-0.65345 1.8837,-0.78458 3.47886,-0.78458 1.62463,0 2.15017,0.12317 3.46347,0.8117 0.85152,0.44643 1.84588,1.08233 2.20968,1.4131 0.3638,0.33077 1.13771,0.87697 1.71979,1.21377 0.58208,0.33681 1.47605,1.00667 1.9866,1.4886 0.59563,0.56224 1.30672,0.93555 1.98438,1.04178 0.58085,0.091 1.11563,0.17705 1.18839,0.19112 0.33604,0.065 7.28782,-0.39232 9.62535,-0.63317 2.09936,-0.2163 2.88938,-0.42479 4.01339,-1.05914 0.76972,-0.4344 1.53867,-0.95752 1.70877,-1.16248 0.1701,-0.20495 0.44136,-1.22601 0.6028,-2.26901 l 0.29353,-1.89637 -0.9385,-0.86007 c -0.63785,-0.58455 -1.04041,-1.2648 -1.25663,-2.12346 -0.17496,-0.69486 -0.49047,-1.59667 -0.70112,-2.00403 -0.21065,-0.40735 -0.383,-0.98049 -0.383,-1.27364 0,-0.69081 0.88465,-1.18041 1.51526,-0.8386 0.25801,0.13986 1.24302,0.6092 2.1889,1.04299 1.90635,0.87427 2.71415,1.74237 3.76196,4.04281 1.24739,2.73858 1.20447,4.19509 -0.2155,7.31372 -0.34982,0.76829 -0.63604,1.48908 -0.63604,1.60174 0,0.36352 -1.68584,1.80816 -2.91042,2.494 -1.59744,0.89468 -3.07367,1.17856 -7.98667,1.53588 -5.02748,0.36564 -9.83329,0.1292 -11.73693,-0.57743 -0.73428,-0.27257 -2.53682,-1.20611 -4.00565,-2.07453 -2.05484,-1.21489 -3.05877,-1.64096 -4.35418,-1.8479 -1.98862,-0.31768 -3.17035,-0.0743 -3.53087,0.72716 -0.14365,0.31935 -0.40927,0.58063 -0.59027,0.58063 -0.74426,0 -0.76006,2.34887 -0.0262,3.89567 0.19167,0.404 0.81325,0.96144 1.3813,1.23876 0.91662,0.44749 1.69042,0.5063 6.87916,0.52281 5.97832,0.019 14.39639,-0.40055 17.3983,-0.86716 0.92248,-0.14338 2.62973,-0.39478 3.7939,-0.55865 3.70872,-0.52205 5.76158,-1.23339 8.66286,-3.00179 1.49282,-0.90991 2.95235,-1.77892 3.24339,-1.93115 0.29104,-0.15222 0.8721,-0.45722 1.29125,-0.67778 1.4905,-0.78432 7.92087,-5.91806 8.5654,-6.83825 0.25947,-0.37044 0.26657,-0.78254 0.0323,-1.87483 -0.26621,-1.24125 -0.5219,-1.61102 -2.25473,-3.2606 -1.07496,-1.02331 -2.3243,-2.14963 -2.77632,-2.50292 -1.80009,-1.4069 -2.20764,-3.09953 -1.40063,-5.81705 0.76464,-2.57482 4.58705,-5.77254 7.98923,-6.68356 3.0378,-0.81346 8.61374,-1.54275 11.78806,-1.5418 2.04004,5.3e-4 3.10045,0.84036 1.50396,1.19101 -0.43656,0.0959 -0.79375,0.28394 -0.79375,0.4179 0,0.13395 -0.32742,0.24394 -0.7276,0.2444 -2.43446,0.003 -10.09749,1.72054 -11.61111,2.60269 -0.66413,0.38707 -1.58266,0.92241 -2.04117,1.18964 -0.45851,0.26724 -1.33968,0.97664 -1.95814,1.57645 -0.86781,0.84163 -1.12448,1.28651 -1.12448,1.94906 0,1.37262 0.51313,2.15229 1.82663,2.77543 2.64447,1.25458 6.3214,4.58604 5.99639,5.43299 -0.0792,0.20646 -0.0349,0.30794 0.0985,0.22551 0.13338,-0.0824 0.30383,0.0602 0.37878,0.31698 0.81264,2.78414 0.10117,5.53093 -2.01035,7.7614 -1.54636,1.63347 -4.72034,4.25291 -6.55449,5.40933 -0.65485,0.41288 -1.78594,1.13083 -2.51354,1.59545 -2.48941,1.58966 -6.36821,3.79455 -7.61688,4.32979 -2.25856,0.96813 -6.37124,2.15472 -8.39042,2.4208 -7.5513,0.99507 -20.2543,1.50883 -26.19375,1.05936 z m -38.496868,-5.32538 c -5.02685,-0.34624 -9.81939,-1.69391 -13.49375,-3.79447 -1.69046,-0.9664 -3.46674,-2.58313 -6.89526,-6.27592 -1.51136,-1.62785 -2.3122,-2.29053 -3.15554,-2.61118 -0.71141,-0.27047 -0.72539,-0.31496 -0.5218,-1.66095 0.11506,-0.76067 0.17498,-2.39506 0.13316,-3.63199 -0.0418,-1.23693 -0.0913,-2.78474 -0.10996,-3.43958 l -0.0339,-1.19063 1.15545,0.0532 c 0.6355,0.0292 1.34987,0.21297 1.5875,0.40829 0.23763,0.19531 0.7606,0.51953 1.16215,0.72048 0.88617,0.44346 3.10016,2.52658 3.69564,3.47719 0.23785,0.37971 0.91785,1.27267 1.51111,1.98437 0.59326,0.7117 1.40516,1.68745 1.80423,2.16833 0.75397,0.90854 3.16709,2.65152 4.80624,3.47153 0.95429,0.47738 3.42246,1.24963 6.1058,1.91039 2.30339,0.56719 9.97649,0.4844 12.299478,-0.13271 2.36955,-0.62948 4.04762,-1.42149 4.39769,-2.07561 0.15192,-0.28386 0.45178,-0.71546 0.66637,-0.9591 1.30004,-1.47615 2.94942,-4.3133 5.46183,-9.3951 1.38687,-2.80519 3.48065,-5.46769 4.29979,-5.46769 0.10256,0 1.33394,-0.76529 2.73639,-1.70066 5.35046,-3.56849 10.62918,-4.17555 15.64678,-1.79941 1.09141,0.51684 2.25786,1.15037 2.59212,1.40785 0.33425,0.25748 0.92956,0.5416 1.32291,0.63139 1.38328,0.31575 2.52192,1.85937 3.75465,5.09008 0.17861,0.46812 0.49054,0.98871 0.69317,1.15688 0.45812,0.38021 0.48094,1.21386 0.0377,1.37665 -0.1819,0.0668 -1.34276,-0.39008 -2.57968,-1.01529 -2.6254,-1.32702 -3.0027,-1.49041 -5.29167,-2.2916 -3.2678,-1.14381 -8.25515,-0.69207 -11.86917,1.07506 -1.42578,0.69717 -2.99012,2.78555 -5.47856,7.31385 -3.02045,5.49642 -6.41561,10.62317 -7.75598,11.71166 -0.58499,0.47506 -2.25804,1.40393 -3.71788,2.06415 -2.40501,1.08768 -2.93421,1.22356 -5.6356,1.44705 -3.310608,0.27389 -5.041758,0.26898 -9.331348,-0.0265 z m -38.23229,-1.49107 c -1.43841,-0.50102 -5.50436,-2.3494 -5.88698,-2.67621 -0.78292,-0.66874 -0.62264,-2.76427 0.31575,-4.12817 1.06688,-1.55065 1.65968,-1.87289 4.15461,-2.2584 2.00659,-0.31006 2.23223,-0.41145 3.27092,-1.46979 l 1.11565,-1.13677 0.65995,-5.64819 c 0.60593,-5.18591 0.63598,-5.9622 0.36717,-9.48466 -0.16103,-2.11005 -0.36193,-4.08793 -0.44645,-4.39528 -0.2102,-0.76439 0.50888,-1.00039 1.56674,-0.51419 1.02196,0.4697 5.40204,1.62333 7.11798,1.87475 l 1.25513,0.18389 -0.14793,0.9624 c -0.0814,0.52931 -0.34986,2.27208 -0.59667,3.8728 -0.27785,1.80211 -0.38085,3.4142 -0.27048,4.23334 0.098,0.7276 0.18868,3.79612 0.20143,6.81893 l 0.0232,5.49602 -1.09699,1.19009 c -0.60335,0.65455 -1.9428,1.74486 -2.97656,2.42292 -1.03377,0.67805 -2.44758,1.85832 -3.1418,2.62283 -1.10718,1.21926 -1.44843,1.4269 -2.77813,1.69043 -0.83374,0.16524 -1.69449,0.34117 -1.91277,0.39097 -0.21828,0.0498 -0.57547,0.0283 -0.79375,-0.0477 z m -45.8455002,-4.1345 c -0.6505,-0.20219 -1.13472,-0.57458 -1.38906,-1.06825 -0.50293,-0.97619 -0.50065,-2.39318 0.005,-2.81245 0.21724,-0.18029 0.52113,-0.79631 0.67533,-1.36893 0.15419,-0.57263 0.4527,-1.10728 0.66335,-1.18812 0.51253,-0.19667 0.48313,-0.67342 -0.08,-1.29724 -0.25466,-0.2821 -0.67626,-0.92963 -0.93689,-1.43895 -0.26063,-0.50932 -0.64583,-1.2237 -0.856,-1.5875 -0.68971,-1.19389 -0.32712,-4.67832 0.58137,-5.5868 0.27652,-0.27652 1.18449,-0.64575 2.01772,-0.82053 1.35014,-0.28319 1.6082,-0.26442 2.3718302,0.17253 1.42029,0.81268 2.06896,1.52799 2.86306,3.15717 0.41621,0.85392 1.06943,1.96251 1.45158,2.46354 0.38216,0.50103 0.71561,1.05253 0.741,1.22555 0.0254,0.17302 0.11202,0.31458 0.1925,0.31458 0.0805,0 0.75689,0.54894 1.50311,1.21986 0.80919,0.72753 2.00568,1.46254 2.96457,1.82114 1.50701,0.56358 1.84725,0.58941 5.428,0.41205 4.96607,-0.24598 7.92258,-1.04127 8.65483,-2.32813 0.37478,-0.65863 1.15258,-2.73298 1.56291,-4.16818 0.55021,-1.92447 0.78672,-2.05494 6.20377,-3.42241 7.5079,-1.89527 7.99355,-1.98734 10.52065,-1.99444 2.01055,-0.006 2.38775,0.0649 2.71198,0.50704 0.8449,1.1522 0.16963,6.57334 -0.94856,7.61509 -0.51471,0.47952 -3.65507,1.34196 -4.45655,1.2239 -0.23979,-0.0353 -1.0313,0.0683 -1.7589,0.2303 -0.7276,0.16199 -2.21588,0.43787 -3.30729,0.61307 -2.19063,0.35165 -4.32607,1.08295 -6.78106,2.32223 -2.8909,1.45932 -8.4186,2.29983 -17.56061,2.67016 -5.03308,0.20388 -6.12383,0.46654 -8.00632,1.92794 -1.90625,1.47985 -3.1452202,1.77188 -5.0308402,1.18578 z M 141.38462,153.26328 c -1.27345,-0.3911 -1.59001,-1.247 -1.05594,-2.85494 0.3643,-1.09681 0.67952,-1.48812 1.81618,-2.25456 0.75645,-0.51006 1.75409,-1.00422 2.21698,-1.09813 1.28914,-0.26151 1.53933,-0.7495 1.44385,-2.81616 -0.0709,-1.53393 -0.39023,-2.58275 -2.04052,-6.7012 -1.91062,-4.7681 -2.72339,-6.18716 -5.72577,-9.99694 -0.56568,-0.7178 -0.56661,-0.73846 -0.10153,-2.24896 0.25817,-0.83847 0.74497,-1.95084 1.08178,-2.47192 0.33681,-0.52108 1.04224,-1.80101 1.56762,-2.84427 1.01951,-2.02449 1.55221,-2.324 2.6528,-1.49156 0.28247,0.21365 0.66712,0.38846 0.85477,0.38846 0.18765,0 1.35852,0.48334 2.60193,1.07408 3.24442,1.54142 3.42507,1.87359 4.25334,7.82067 0.48858,3.50805 0.92982,5.55217 1.70664,7.90629 0.57623,1.74625 1.5638,4.97363 2.1946,7.17196 l 1.14691,3.99695 -1.41016,2.81097 c -1.18725,2.36664 -1.52521,2.83506 -2.13798,2.96329 -0.40029,0.0838 -1.20406,0.26037 -1.78614,0.39243 -1.5711,0.35644 -8.34194,0.54144 -9.27936,0.25354 z m -51.111788,-3.09849 c -0.61846,-0.0557 -1.12448,-0.21149 -1.12448,-0.34619 0,-0.1347 -0.57303,-0.53529 -1.27339,-0.89019 -0.70036,-0.3549 -1.42824,-0.83185 -1.61749,-1.05989 -0.58568,-0.7057 -0.12444,-2.11615 1.03436,-3.16305 1.78382,-1.61158 2.74944,-1.97598 7.88171,-2.9743 1.38118,-0.26867 4.55092,-6.64815 4.56372,-9.18506 0.003,-0.60791 0.313128,-1.93874 0.689008,-2.95738 0.94911,-2.5721 1.62358,-6.84674 1.16709,-7.39677 -0.18643,-0.22464 -0.56625,-0.40844 -0.84404,-0.40844 -0.56296,0 -1.020888,-0.83676 -0.54478,-0.99547 0.16691,-0.0556 0.75388,-0.40805 1.30437,-0.78315 0.5505,-0.3751 1.53668,-0.97767 2.19152,-1.33905 0.65485,-0.36137 1.68692,-1.05789 2.29349,-1.54781 0.60657,-0.48992 1.26142,-0.88789 1.45521,-0.88438 0.19379,0.004 0.8286,0.718 1.41068,1.58774 0.91741,1.37079 1.25665,1.65496 2.54771,2.13407 2.11885,0.78632 2.27177,1.20158 1.42712,3.87536 -0.37572,1.18938 -1.38639,3.65269 -2.24593,5.47401 -0.85954,1.82133 -2.59591,6.1853 -3.85861,9.69773 -3.39792,9.45191 -3.30272,9.24469 -4.68164,10.18992 -0.98625,0.67606 -1.55138,0.84856 -3.250418,0.99218 -2.08156,0.17596 -6.46437,0.16574 -8.52521,-0.0199 z m -68.61571,-3.10069 c -1.71904,-0.26589 -2.1856,-0.45982 -3.25322,-1.35225 -1.19749,-1.00097 -1.23951,-1.08336 -1.07128,-2.10019 0.22485,-1.35903 0.47253,-1.81148 1.75081,-3.19825 0.80145,-0.86947 1.46466,-1.27344 2.81453,-1.71436 0.97131,-0.31727 1.87913,-0.68118 2.01737,-0.80869 0.13824,-0.12751 0.50184,-0.23184 0.80799,-0.23184 2.06105,0 4.70606,-6.16693 5.95773,-13.89063 0.30657,-1.89177 0.60939,-3.59835 0.67294,-3.7924 0.083,-0.25337 0.39518,-0.13277 1.10756,0.42781 1.86122,1.46463 4.51433,2.43855 6.643,2.43855 0.40159,0 0.9583,0.16682 1.23714,0.37071 0.49773,0.36395 0.49642,0.39652 -0.0717,1.78594 -0.31826,0.77838 -0.94734,2.42455 -1.39796,3.65816 -0.45062,1.23361 -0.91875,2.30517 -1.04028,2.38125 -0.38805,0.2429 -1.50264,3.26497 -2.64914,7.18283 -2.04791,6.99813 -2.33696,7.43094 -5.69873,8.53311 -2.35292,0.77141 -4.33676,0.85005 -7.82678,0.31025 z M 131.43856,125.35857 c -0.53304,-0.19603 -2.79523,-0.80056 -5.02708,-1.3434 -3.65542,-0.88909 -4.24982,-1.11623 -5.99258,-2.28993 -2.23473,-1.50502 -6.89731,-5.65574 -10.89763,-9.70127 -3.28136,-3.31844 -3.5918,-3.53575 -6.27527,-4.39276 -2.72134,-0.8691 -6.852568,-0.93016 -9.377718,-0.1386 -0.92247,0.28916 -2.09394,0.52979 -2.60326,0.53474 -0.50933,0.005 -1.75948,0.31021 -2.77813,0.67836 -2.95543,1.06813 -4.9021,1.64084 -6.74687,1.98496 -0.94589,0.17645 -1.83886,0.40561 -1.98438,0.50924 -0.63424,0.45169 -1.62476,0.44497 -4.40801,-0.0299 -1.63168,-0.27839 -3.05267,-0.41526 -3.15776,-0.30414 -0.10508,0.11111 -0.78083,1.51171 -1.50164,3.11244 -0.72082,1.60073 -1.55221,3.4462 -1.84754,4.10104 -0.29533,0.65485 -0.7578,2.41102 -1.02771,3.90261 l -0.49074,2.71198 h -2.42053 c -2.79465,0 -5.34098,-0.65783 -7.26194,-1.87607 -0.66758,-0.42337 -1.38998,-0.76977 -1.60533,-0.76977 -0.24057,0 -0.56115,-0.53809 -0.83145,-1.39556 -0.24195,-0.76756 -1.28527,-2.76186 -2.31849,-4.43177 -1.66183,-2.68589 -2.10702,-3.20388 -3.85848,-4.48936 -2.16907,-1.592 -3.06106,-2.81563 -4.04668,-5.55123 -0.80896,-2.2453 -1.3981,-2.99901 -3.318,-4.2448 -4.93983,-3.205375 -6.37695,-4.356515 -8.31051,-6.656765 -1.41655,-1.68519 -2.06359,-2.75406 -3.09506,-5.1128 -0.55834,-1.2768 -1.15647,-2.02263 -1.46778,-1.83023 -0.12607,0.0779 -0.22922,0.0156 -0.22922,-0.13853 0,-0.15411 -0.11733,-0.2802 -0.26073,-0.2802 -0.51265,0 1.9095,5.12906 3.32354,7.03778 1.4554,1.96456 3.46459,3.88032 5.51566,5.259195 2.24844,1.51157 5.44401,4.56851 5.44498,5.20877 2.6e-4,0.19449 0.52603,1.15308 1.1683,2.13018 0.75562,1.14953 1.11936,1.96172 1.0306,2.30116 -0.0754,0.28853 0.0679,1.06166 0.3186,1.71807 0.66553,1.74266 0.36486,3.07505 -1.41654,6.27732 l -1.5196,2.73166 -1.16903,-0.0844 c -1.91316,-0.13814 -5.83458,-1.75313 -7.56,-3.1135 l -1.07734,-0.8494 -0.32785,-4.18811 c -0.18031,-2.30345 -0.45209,-4.51068 -0.60395,-4.90496 -0.2188,-0.56806 -0.58619,-0.80646 -1.76981,-1.14846 -3.20232,-0.92529 -3.77659,-1.31101 -6.11253,-4.10559 -1.42563,-1.70554 -2.65042,-2.891145 -3.4524,-3.341965 -1.08321,-0.6089 -1.48965,-1.11902 -3.16304,-3.96988 -1.83108,-3.1195 -1.96054,-3.45176 -2.79176,-7.16505 -1.08904,-4.86505 -1.59389,-10.10173 -1.20497,-12.49888 0.15292,-0.94255 0.27923,-3.67825 0.28068,-6.07935 0.004,-6.02021 0.41777,-11.05171 1.05069,-12.76541 0.28231,-0.76439 0.81821,-3.0553 1.19089,-5.09091 0.37267,-2.03561 1.27777,-5.71903 2.01132,-8.18538 l 1.33373,-4.48427 0.0516,-4.25004 c 0.0292,-2.40452 -0.10469,-5.42592 -0.30837,-6.95798 -0.32216,-2.42335 -0.31246,-2.95168 0.0923,-5.02708 0.24875,-1.27553 0.81014,-3.03352 1.24752,-3.90664 2.61706,-5.224271 2.43258,-4.960205 3.20749,-4.5913 0.96182,0.45789 7.76745,9.63329 9.13149,12.31112 0.64757,1.2713 1.14843,1.50953 2.41184,1.14719 0.93116,-0.26705 6.09798,0.3871 9.27252,1.17397 0.80036,0.19839 2.11005,0.43418 2.91042,0.52398 l 1.4552,0.16329 2.42355,-1.73249 c 1.45746,-1.04187 3.51412,-2.19312 5.15938,-2.88803 1.5047,-0.63554 3.09301,-1.34631 3.52957,-1.57948 0.49633,-0.26509 1.44759,-0.42456 2.53868,-0.42558 2.97072,-0.003 3.28686,1.10526 1.60012,5.6082 -0.56133,1.4985 -1.16503,3.48671 -1.34157,4.41824 -0.34087,1.79869 -1.33383,4.48687 -2.66818,7.22343 -0.8439,1.73074 -1.2502,4.04598 -1.87107,10.66205 -0.25655,2.73382 -0.34443,3.03409 -1.44836,4.94861 -0.64638,1.121 -1.17524,2.32534 -1.17524,2.6763 0,0.35095 -0.25345,0.9603 -0.56321,1.35411 -0.31472,0.4001 -0.46064,0.81059 -0.33073,0.93037 0.12786,0.1179 1.21627,0.81888 2.41868,1.55773 l 2.1862,1.34338 5.35443,-1.08322 5.35442,-1.08322 5.66799,0.60097 c 4.12579,0.43745 6.39348,0.55527 8.33437,0.43302 2.48288,-0.1564 2.76435,-0.1222 4.08977,0.49687 0.78285,0.36565 2.55161,0.95131 3.93057,1.30147 l 2.5072,0.63664 3.61005,-0.88948 c 3.196268,-0.78753 4.095278,-0.89884 7.843388,-0.9711 2.8259,-0.0545 4.76111,0.0349 5.82083,0.26888 1.79204,0.39566 4.62497,1.85888 7.31438,3.7779 2.07949,1.48382 2.98853,1.62678 4.27879,0.6729 1.68104,-1.24278 6.18302,-3.11303 8.18017,-3.39827 4.03476,-0.57626 15.36401,0.26477 18.60985,1.3815 0.83569,0.28752 1.89074,0.52276 2.34456,0.52276 0.98141,0 6.51238,1.33271 8.72461,2.10223 0.85952,0.29898 2.07704,0.54361 2.70558,0.54361 0.6764,0 1.49636,0.21556 2.0091,0.52817 0.47646,0.2905 1.30503,0.52863 1.84126,0.52917 0.53623,5.3e-4 1.31013,0.13068 1.71979,0.28919 1.42609,0.55181 12.73187,3.14622 16.64684,3.82006 2.16795,0.37315 4.65611,0.90885 5.52924,1.19045 1.92789,0.62177 11.14427,1.86602 13.89062,1.87529 2.65483,0.009 5.37086,-0.6599 7.73547,-1.905 0.25269,-0.13305 0.6855,-0.24192 0.96181,-0.24192 0.27631,0 0.84347,-0.15172 1.26036,-0.33717 1.06928,-0.47564 4.37354,-2.68141 4.91433,-3.28059 0.27407,-0.30365 0.79517,-0.4975 1.32292,-0.49213 l 0.87074,0.009 -0.0935,1.45521 c -0.10997,1.71266 -1.08815,4.98907 -2.21176,7.40833 -2.4202,5.21099 -2.26557,4.98982 -6.28953,8.99584 -2.1195,2.11005 -4.20791,4.01137 -4.64091,4.22515 -0.433,0.21378 -1.50165,0.93859 -2.37477,1.61069 -2.41256,1.8571 -8.46699,5.17617 -11.01012,6.035795 -1.29796,0.43874 -3.21548,0.84853 -4.49102,0.95977 -1.3878,0.12103 -2.87351,0.45357 -3.94574,0.88315 l -1.71979,0.68903 -8.20208,-0.0132 -8.20208,-0.0132 -2.77813,-1.07206 c -1.52797,-0.58964 -4.25223,-1.68138 -6.05391,-2.426085 -1.80168,-0.74472 -3.47451,-1.35403 -3.71739,-1.35403 -0.24289,0 -0.55473,-0.11312 -0.69298,-0.25137 -0.13825,-0.13825 -1.73964,-0.54332 -3.55865,-0.90016 -1.819,-0.35685 -4.76739,-1.07014 -6.55197,-1.58511 -3.51489,-1.01427 -6.12464,-2.39429 -9.85218,-5.20978 -1.09141,-0.82436 -2.4011,-1.71367 -2.91042,-1.97625 -0.50932,-0.26257 -1.0825,-0.66747 -1.27373,-0.89976 -0.28846,-0.35042 -0.3263,0.73552 -0.22211,6.37499 l 0.12557,6.797345 1.26749,4.05057 c 1.40152,4.47889 2.69991,6.80134 4.97297,8.89518 l 1.23806,1.14045 -0.83914,2.29913 c -0.86451,2.36866 -2.22418,4.86558 -3.42087,6.28212 -0.37542,0.44439 -0.95456,1.24806 -1.28699,1.78594 -0.67649,1.09458 -0.60145,1.07183 -1.92729,0.58425 z m 79.44227,-37.740305 c 1.22365,-1.3284 2.34387,-2.61577 2.4894,-2.86084 0.14552,-0.24506 0.592,-0.86607 0.99218,-1.38002 0.40019,-0.51395 0.72761,-1.05747 0.72761,-1.20781 0,-0.15035 0.19794,-0.43677 0.43987,-0.63649 0.64527,-0.53268 1.35121,-2.28213 1.56117,-3.86885 0.22811,-1.72394 0.041,-1.75788 -2.53587,-0.46017 -2.48927,1.25357 -4.60934,1.70837 -7.98554,1.71303 -1.5575,0.002 -3.11855,0.13455 -3.46899,0.29422 -0.7367,0.33567 -1.50581,1.78424 -1.50125,2.82752 0.009,2.03211 1.29874,4.86027 3.12101,6.84316 0.84225,0.9165 1.24639,1.07526 2.85312,1.12082 1.03821,0.0294 1.17348,-0.0681 3.30729,-2.38457 z M 41.126482,63.178315 c 0,-0.38139 -0.18473,-0.53615 -0.66146,-0.55417 -0.3638,-0.0138 -1.37584,-0.11572 -2.24896,-0.22661 l -1.5875,-0.20161 0.56341,0.58423 c 0.61934,0.64224 1.91085,1.04207 3.14076,0.97233 0.60235,-0.0342 0.79375,-0.1726 0.79375,-0.57417 z m 1.67989,-2.1695 c 0.38575,-0.2826 0.99025,-1.10071 1.34334,-1.818 0.3531,-0.71729 0.85911,-1.7371 1.12448,-2.26623 0.26537,-0.52914 0.48249,-1.20672 0.48249,-1.50574 0,-0.29902 0.10791,-0.61037 0.2398,-0.69188 0.13189,-0.0815 0.32419,-0.77315 0.42734,-1.53697 0.10315,-0.76382 0.29322,-1.5899 0.42238,-1.83573 0.14959,-0.28472 0.1278,-0.51312 -0.0601,-0.62921 -0.34203,-0.21138 -0.70523,0.26535 -0.92066,1.20847 -0.0831,0.3638 -0.37019,1.1377 -0.63798,1.71979 -0.26778,0.58208 -0.5549,1.37262 -0.63803,1.75675 -0.19875,0.91837 -0.71242,1.08154 -1.988,0.63149 -1.19918,-0.4231 -3.19592,-0.28912 -4.3149,0.28953 -0.5292,0.27366 -0.87743,0.30572 -1.23608,0.11377 -0.53288,-0.28519 -2.40059,-3.03137 -3.47494,-5.10936 -0.69605,-1.34628 -1.36299,-1.76122 -1.9919,-1.23927 -0.57852,0.48012 -0.23787,1.8054 1.26462,4.91993 1.73431,3.59506 3.97899,5.96339 6.10201,6.43813 1.37568,0.30762 3.10004,0.10842 3.85608,-0.44547 z m -4.56404,-1.01703 c -0.33637,-0.33637 -0.4265,-0.69933 -0.31369,-1.26333 0.23363,-1.16818 0.56898,-1.43775 2.04029,-1.64011 1.1684,-0.16069 1.40876,-0.10826 1.98491,0.433 0.49293,0.46309 0.61496,0.78166 0.49199,1.28432 -0.2541,1.03859 -0.72191,1.34747 -2.2851,1.50881 -1.16937,0.12069 -1.53683,0.0589 -1.9184,-0.32269 z m 18.16674,-24.46217 c 0.8703,-0.96172 2.23927,-3.05977 3.47372,-5.32377 1.93983,-3.55766 2.01584,-3.76035 1.58754,-4.23361 -0.2474,-0.27338 -0.57002,-0.49705 -0.71692,-0.49705 -0.63657,0 -4.18271,1.89919 -6.05624,3.24352 -2.99062,2.14589 -3.43932,2.52552 -3.91976,3.31636 -0.39349,0.64771 -0.39556,0.74534 -0.0216,1.02141 0.32325,0.23864 0.64569,0.18861 1.47749,-0.22926 0.5852,-0.29399 1.2426,-0.69032 1.46088,-0.88073 0.21828,-0.19042 0.75406,-0.38491 1.19062,-0.4322 0.73522,-0.0796 0.78763,-0.0291 0.71081,0.68492 -0.0456,0.424 -0.37305,1.65958 -0.72761,2.74575 -0.75963,2.32708 -0.74034,2.17189 -0.26998,2.17189 0.20607,0 1.02104,-0.71425 1.81104,-1.58723 z m -32.27543,-4.38712 c 0.3101,-1.38357 0.42119,-2.64516 0.32699,-3.71359 -0.1052,-1.19325 -0.0467,-1.6978 0.22284,-1.92149 0.2801,-0.23246 0.44367,-0.20916 0.70003,0.0997 0.47658,0.57424 1.2804,1.99048 1.62135,2.85661 0.45661,1.15995 0.89576,0.70385 0.86546,-0.89885 -0.0211,-1.11817 -0.21749,-1.74422 -0.90434,-2.88348 -2.10336,-3.48877 -3.52557,-5.55625 -3.82214,-5.55625 -0.18229,0 -0.52522,0.90142 -0.79908,2.10049 -0.40378,1.76791 -0.43211,2.34394 -0.17897,3.63802 0.38641,1.97537 0.83503,5.97146 0.83599,7.44656 0.001,1.825 0.59942,1.2078 1.13187,-1.16776 z m 68.17823,87.110375 c -1.29827,-0.85317 -2.03707,-1.64495 -3.58846,-3.84575 -2.54864,-3.61547 -2.72906,-3.37413 3.59994,-4.81536 6.70349,-1.52649 12.191398,-0.5518 14.207168,2.52329 l 0.56149,0.85655 -1.76194,1.15136 c -0.96906,0.63324 -2.56123,1.72933 -3.53816,2.43575 -1.72448,1.24698 -3.670348,1.98658 -6.738638,2.56128 -1.01436,0.18999 -1.24275,0.11775 -2.7414,-0.86712 z"
       id="path5172"
       inkscape:connector-curvature="0" />
  </g>
</svg>
